<svg width="293" height="290" viewBox="0 0 293 290" fill="none" xmlns="http://www.w3.org/2000/svg">
<path d="M250.187 187.752L249.73 191.812L257.705 182.584C258.659 182.683 259.618 182.733 260.577 182.735" stroke="#263238" stroke-linecap="round" stroke-linejoin="round"/>
<path d="M240.196 159.749C239.148 161.314 238.491 163.104 238.28 164.969C237.524 171.715 242.868 178.095 250.943 181.047L250.533 184.672" stroke="#263238" stroke-linecap="round" stroke-linejoin="round"/>
<path d="M243.296 156.391C242.776 156.807 242.283 157.255 241.819 157.731" stroke="#263238" stroke-linecap="round" stroke-linejoin="round"/>
<path d="M273.205 156.391C269.564 153.922 265.355 152.398 260.963 151.96C256.322 151.397 251.614 152.082 247.333 153.944" stroke="#263238" stroke-linecap="round" stroke-linejoin="round"/>
<path d="M266.126 182.19C273.744 180.629 279.516 175.81 280.19 169.557C280.682 165.184 278.614 160.967 274.916 157.731" stroke="#263238" stroke-linecap="round" stroke-linejoin="round"/>
<path d="M247.339 160.874C247.984 160.993 248.646 160.985 249.288 160.85C249.929 160.714 250.538 160.455 251.078 160.086L253.926 162.272C253.726 162.336 253.744 161.918 253.955 161.907C254.166 161.895 254.324 162.087 254.47 162.237C255.139 162.939 256.264 162.962 257.219 162.759C258.174 162.556 259.106 162.179 260.079 162.214C260.657 162.274 261.226 162.405 261.772 162.603C265.687 163.803 269.759 164.407 273.814 164.998" stroke="#263238" stroke-linecap="round" stroke-linejoin="round"/>
<path d="M243.976 164.998C244.562 164.964 247.826 164.998 248.294 164.61L249.091 165.984L249.97 165.143C250.123 165.723 250.275 166.303 250.422 166.849C251.084 167.005 251.008 165.741 251.594 165.364C251.774 165.276 251.981 165.259 252.173 165.316C252.365 165.373 252.529 165.5 252.631 165.671C252.823 166.027 252.916 166.428 252.9 166.831L256.909 167.156L257.688 167.22C257.967 166.799 258.379 166.483 258.86 166.321C258.713 167.237 259.88 167.759 260.806 167.945C265.365 168.865 269.947 169.66 274.553 170.329" stroke="#263238" stroke-linecap="round" stroke-linejoin="round"/>
<path d="M245.757 171.297C246.126 171.552 246.577 171.077 247.028 171.019C247.48 170.961 247.849 171.297 248.247 171.5C248.646 171.703 249.302 171.616 249.326 171.175C249.419 171.755 250.146 171.964 250.738 172.045L266.126 174.186" stroke="#263238" stroke-linecap="round" stroke-linejoin="round"/>
<path d="M39.8481 151.484L46.0129 159.697L44.7764 148.95C46.2503 148.241 47.66 147.409 48.9897 146.462C55.3068 141.938 57.8501 134.659 55.5354 128.795C53.9121 124.7 50.109 121.916 45.3038 120.762" stroke="#263238" stroke-linecap="round" stroke-linejoin="round"/>
<path d="M15.4998 138.527C15.3077 140.387 15.5648 142.266 16.2499 144.008C18.7463 150.33 26.4697 153.52 35.0019 152.418" stroke="#263238" stroke-linecap="round" stroke-linejoin="round"/>
<path d="M16.6661 134.125C16.4043 134.734 16.1793 135.357 15.9922 135.993" stroke="#263238" stroke-linecap="round" stroke-linejoin="round"/>
<path d="M43.153 120.367C38.7686 119.849 34.3228 120.431 30.2258 122.061C25.853 123.698 22.0067 126.471 19.0918 130.088" stroke="#263238" stroke-linecap="round" stroke-linejoin="round"/>
<path d="M22.3501 136.23C23.6107 135.841 24.6642 134.974 25.2801 133.818L28.7961 134.444C28.6437 134.589 28.4679 134.212 28.6496 134.102C28.8313 133.992 29.0598 134.102 29.2356 134.16C30.1615 134.473 31.1635 133.98 31.9136 133.359C32.6637 132.739 33.3083 131.967 34.1932 131.561C34.7337 131.348 35.2984 131.2 35.875 131.121C39.9067 130.39 43.7918 129.044 47.6653 127.704" stroke="#263238" stroke-linecap="round" stroke-linejoin="round"/>
<path d="M21.3071 141.433C21.8287 141.126 24.7176 139.658 24.952 139.113L26.3057 139.966C26.4346 139.583 26.5635 139.194 26.6866 138.806L27.8879 140.111C28.5501 139.948 27.8879 138.864 28.2043 138.272C28.3222 138.111 28.4973 138.001 28.6942 137.963C28.8911 137.926 29.0951 137.963 29.265 138.069C29.5997 138.291 29.8686 138.597 30.0444 138.956L33.7421 137.402L34.4687 137.1C34.5103 136.602 34.7162 136.132 35.0547 135.761C35.3594 136.648 36.6369 136.567 37.5393 136.306C42.0125 135.03 46.4446 133.626 50.8357 132.095" stroke="#263238" stroke-linecap="round" stroke-linejoin="round"/>
<path d="M25.8428 146.189C26.294 146.247 26.4698 145.609 26.839 145.354C27.2082 145.099 27.7004 145.232 28.1458 145.22C28.5911 145.209 29.1361 144.843 28.9486 144.443C29.306 144.913 30.0503 144.762 30.607 144.565L45.257 139.374" stroke="#263238" stroke-linecap="round" stroke-linejoin="round"/>
<path d="M218.537 51.9795H72.4239C69.5791 51.9795 67.2729 54.262 67.2729 57.0777V187.357C67.2729 190.173 69.5791 192.456 72.4239 192.456H218.537C221.382 192.456 223.688 190.173 223.688 187.357V57.0777C223.688 54.262 221.382 51.9795 218.537 51.9795Z" fill="white"/>
<path opacity="0.2" d="M223.688 128.928V187.508C223.688 188.819 223.162 190.077 222.226 191.004C221.29 191.932 220.02 192.454 218.695 192.456H72.2715C70.9458 192.456 69.6744 191.934 68.737 191.006C67.7996 190.079 67.2729 188.82 67.2729 187.508V175.908H67.5835V183.727C67.5835 184.47 67.7315 185.205 68.019 185.892C68.3065 186.578 68.7279 187.202 69.259 187.727C69.7902 188.252 70.4208 188.669 71.1146 188.953C71.8085 189.237 72.5521 189.382 73.3029 189.382H214.757C215.508 189.382 216.252 189.237 216.946 188.953C217.64 188.669 218.27 188.252 218.801 187.727C219.332 187.202 219.754 186.578 220.041 185.892C220.329 185.205 220.477 184.47 220.477 183.727V137.617C220.477 136.572 220.058 135.57 219.311 134.832C218.565 134.093 217.553 133.678 216.498 133.678H67.2729V128.928H223.688Z" fill="black"/>
<path d="M218.537 51.9795H72.4239C69.5791 51.9795 67.2729 54.262 67.2729 57.0777V187.357C67.2729 190.173 69.5791 192.456 72.4239 192.456H218.537C221.382 192.456 223.688 190.173 223.688 187.357V57.0777C223.688 54.262 221.382 51.9795 218.537 51.9795Z" stroke="#263238" stroke-linecap="round" stroke-linejoin="round"/>
<path d="M210.069 145.609V138.898C210.07 138.572 210.006 138.249 209.88 137.947C209.754 137.646 209.57 137.372 209.337 137.141C209.104 136.911 208.827 136.728 208.522 136.603C208.217 136.479 207.891 136.415 207.561 136.416H83.3997C82.7345 136.416 82.0966 136.677 81.6262 137.143C81.1559 137.609 80.8916 138.24 80.8916 138.898V145.609C80.8916 146.267 80.6274 146.899 80.1571 147.364C79.6867 147.83 79.0487 148.091 78.3836 148.091V148.091C77.7168 148.091 77.0774 148.353 76.6059 148.82C76.1345 149.287 75.8696 149.92 75.8696 150.58V163.821C75.8696 166.874 77.0952 169.803 79.2766 171.962C81.458 174.121 84.4167 175.334 87.5017 175.334V175.334C87.9975 175.334 88.473 175.529 88.8235 175.876C89.1741 176.223 89.3711 176.693 89.3711 177.184V181.151C89.3711 182.616 89.9588 184.02 91.005 185.056C92.0512 186.091 93.4702 186.673 94.9498 186.673H196.011C197.491 186.673 198.91 186.091 199.956 185.056C201.002 184.02 201.59 182.616 201.59 181.151V177.184C201.59 176.693 201.787 176.223 202.138 175.876C202.488 175.529 202.964 175.334 203.459 175.334C204.987 175.334 206.5 175.036 207.911 174.458C209.322 173.879 210.604 173.031 211.685 171.962C212.765 170.893 213.621 169.624 214.206 168.227C214.791 166.83 215.091 165.333 215.091 163.821V150.58C215.091 149.921 214.827 149.289 214.357 148.822C213.887 148.356 213.249 148.093 212.583 148.091C211.918 148.091 211.279 147.83 210.808 147.365C210.337 146.899 210.071 146.268 210.069 145.609V145.609Z" fill="#263238"/>
<path d="M90.402 140.215H86.0598C85.5283 140.215 85.0185 140.424 84.6427 140.796C84.2668 141.168 84.0557 141.672 84.0557 142.199V143.301C84.0557 145.586 85.925 148.486 88.2338 148.486C90.5427 148.486 92.412 145.586 92.412 143.301V142.199C92.4105 141.672 92.198 141.167 91.8212 140.796C91.4445 140.424 90.9341 140.215 90.402 140.215V140.215Z" fill="white" stroke="#263238" stroke-linecap="round" stroke-linejoin="round"/>
<path d="M100.792 140.215H96.4499C95.9179 140.215 95.4075 140.424 95.0307 140.796C94.6539 141.167 94.4415 141.672 94.4399 142.199V143.301C94.4399 145.586 96.3093 148.486 98.6181 148.486C100.927 148.486 102.796 145.586 102.796 143.301V142.199C102.796 141.672 102.585 141.168 102.209 140.796C101.833 140.424 101.324 140.215 100.792 140.215V140.215Z" fill="white" stroke="#263238" stroke-linecap="round" stroke-linejoin="round"/>
<path d="M111.223 140.215H106.881C106.349 140.215 105.839 140.424 105.463 140.796C105.088 141.168 104.876 141.672 104.876 142.199V143.301C104.876 145.586 106.746 148.486 109.049 148.486C111.352 148.486 113.227 145.586 113.227 143.301V142.199C113.227 141.672 113.016 141.168 112.64 140.796C112.264 140.424 111.754 140.215 111.223 140.215V140.215Z" fill="white" stroke="#263238" stroke-linecap="round" stroke-linejoin="round"/>
<path d="M121.63 140.215H117.288C116.756 140.215 116.247 140.424 115.871 140.796C115.495 141.168 115.284 141.672 115.284 142.199V143.301C115.284 145.586 117.153 148.486 119.462 148.486C121.771 148.486 123.634 145.586 123.634 143.301V142.199C123.634 141.938 123.582 141.68 123.482 141.439C123.381 141.199 123.233 140.98 123.047 140.796C122.861 140.612 122.64 140.466 122.397 140.366C122.154 140.266 121.893 140.215 121.63 140.215V140.215Z" fill="white" stroke="#263238" stroke-linecap="round" stroke-linejoin="round"/>
<path d="M132.038 140.215H127.696C127.164 140.215 126.654 140.424 126.278 140.796C125.903 141.168 125.691 141.672 125.691 142.199V143.301C125.691 145.586 127.561 148.486 129.87 148.486C132.178 148.486 134.048 145.586 134.048 143.301V142.199C134.046 141.672 133.834 141.167 133.457 140.796C133.08 140.424 132.57 140.215 132.038 140.215V140.215Z" fill="white" stroke="#263238" stroke-linecap="round" stroke-linejoin="round"/>
<path d="M142.451 140.215H138.109C137.577 140.215 137.066 140.424 136.689 140.796C136.313 141.167 136.1 141.672 136.099 142.199V143.301C136.099 145.586 137.968 148.486 140.277 148.486C142.586 148.486 144.455 145.586 144.455 143.301V142.199C144.455 141.672 144.244 141.168 143.868 140.796C143.492 140.424 142.982 140.215 142.451 140.215V140.215Z" fill="white" stroke="#263238" stroke-linecap="round" stroke-linejoin="round"/>
<path d="M152.858 140.215H148.516C147.984 140.215 147.475 140.424 147.099 140.796C146.723 141.168 146.512 141.672 146.512 142.199V143.301C146.512 145.586 148.381 148.486 150.684 148.486C152.987 148.486 154.862 145.586 154.862 143.301V142.199C154.862 141.672 154.651 141.168 154.275 140.796C153.899 140.424 153.39 140.215 152.858 140.215V140.215Z" fill="white" stroke="#263238" stroke-linecap="round" stroke-linejoin="round"/>
<path d="M163.265 140.215H158.923C158.392 140.215 157.882 140.424 157.506 140.796C157.13 141.168 156.919 141.672 156.919 142.199V143.301C156.919 145.586 158.788 148.486 161.097 148.486C163.406 148.486 165.269 145.586 165.269 143.301V142.199C165.269 141.672 165.058 141.168 164.682 140.796C164.307 140.424 163.797 140.215 163.265 140.215V140.215Z" fill="white" stroke="#263238" stroke-linecap="round" stroke-linejoin="round"/>
<path d="M173.673 140.215H169.354C169.091 140.215 168.83 140.266 168.587 140.366C168.344 140.466 168.123 140.612 167.937 140.796C167.751 140.98 167.603 141.199 167.503 141.439C167.402 141.68 167.35 141.938 167.35 142.199V143.301C167.35 145.586 169.219 148.486 171.528 148.486C173.837 148.486 175.706 145.586 175.706 143.301V142.199C175.706 141.936 175.652 141.676 175.55 141.434C175.447 141.191 175.296 140.972 175.107 140.787C174.918 140.603 174.694 140.457 174.448 140.359C174.202 140.261 173.938 140.212 173.673 140.215V140.215Z" fill="white" stroke="#263238" stroke-linecap="round" stroke-linejoin="round"/>
<path d="M184.086 140.215H179.744C179.212 140.215 178.701 140.424 178.325 140.796C177.948 141.167 177.735 141.672 177.734 142.199V143.301C177.734 145.586 179.603 148.486 181.912 148.486C184.221 148.486 186.09 145.586 186.09 143.301V142.199C186.09 141.672 185.879 141.168 185.503 140.796C185.127 140.424 184.618 140.215 184.086 140.215V140.215Z" fill="white" stroke="#263238" stroke-linecap="round" stroke-linejoin="round"/>
<path d="M194.493 140.215H190.151C189.62 140.215 189.11 140.424 188.734 140.796C188.358 141.168 188.147 141.672 188.147 142.199V143.301C188.147 145.586 190.016 148.486 192.319 148.486C194.622 148.486 196.497 145.586 196.497 143.301V142.199C196.497 141.672 196.286 141.168 195.91 140.796C195.535 140.424 195.025 140.215 194.493 140.215V140.215Z" fill="white" stroke="#263238" stroke-linecap="round" stroke-linejoin="round"/>
<path d="M204.901 140.215H200.559C200.027 140.215 199.518 140.424 199.142 140.796C198.766 141.168 198.555 141.672 198.555 142.199V143.301C198.555 145.58 200.412 148.48 202.756 148.48C205.1 148.48 206.929 145.58 206.929 143.295V142.193C206.928 141.931 206.875 141.672 206.772 141.43C206.67 141.189 206.52 140.97 206.331 140.786C206.143 140.602 205.919 140.457 205.674 140.359C205.428 140.261 205.166 140.212 204.901 140.215V140.215Z" fill="white" stroke="#263238" stroke-linecap="round" stroke-linejoin="round"/>
<path d="M90.402 162.046H86.0598C85.5283 162.046 85.0185 162.255 84.6427 162.627C84.2668 162.999 84.0557 163.504 84.0557 164.03V165.132C84.0557 167.417 85.925 170.317 88.2338 170.317C90.5427 170.317 92.412 167.417 92.412 165.132V164.03C92.4105 163.503 92.198 162.999 91.8212 162.627C91.4445 162.255 90.9341 162.046 90.402 162.046V162.046Z" fill="white" stroke="#263238" stroke-linecap="round" stroke-linejoin="round"/>
<path d="M100.792 162.046H96.4499C95.9179 162.046 95.4075 162.255 95.0307 162.627C94.6539 162.999 94.4415 163.503 94.4399 164.03V165.132C94.4399 167.417 96.3093 170.317 98.6181 170.317C100.927 170.317 102.796 167.417 102.796 165.132V164.03C102.796 163.504 102.585 162.999 102.209 162.627C101.833 162.255 101.324 162.046 100.792 162.046V162.046Z" fill="white" stroke="#263238" stroke-linecap="round" stroke-linejoin="round"/>
<path d="M111.223 162.046H106.881C106.349 162.046 105.839 162.255 105.463 162.627C105.088 162.999 104.876 163.504 104.876 164.03V165.132C104.876 167.417 106.746 170.317 109.049 170.317C111.352 170.317 113.227 167.417 113.227 165.132V164.03C113.227 163.504 113.016 162.999 112.64 162.627C112.264 162.255 111.754 162.046 111.223 162.046V162.046Z" fill="white" stroke="#263238" stroke-linecap="round" stroke-linejoin="round"/>
<path d="M121.63 162.046H117.288C116.756 162.046 116.247 162.255 115.871 162.627C115.495 162.999 115.284 163.504 115.284 164.03V165.132C115.284 167.417 117.153 170.317 119.462 170.317C121.771 170.317 123.634 167.417 123.634 165.132V164.03C123.634 163.769 123.582 163.511 123.482 163.271C123.381 163.03 123.233 162.811 123.047 162.627C122.861 162.443 122.64 162.297 122.397 162.197C122.154 162.097 121.893 162.046 121.63 162.046V162.046Z" fill="white" stroke="#263238" stroke-linecap="round" stroke-linejoin="round"/>
<path d="M132.038 162.046H127.696C127.164 162.046 126.654 162.255 126.278 162.627C125.903 162.999 125.691 163.504 125.691 164.03V165.132C125.691 167.417 127.561 170.317 129.87 170.317C132.178 170.317 134.048 167.417 134.048 165.132V164.03C134.046 163.503 133.834 162.999 133.457 162.627C133.08 162.255 132.57 162.046 132.038 162.046V162.046Z" fill="white" stroke="#263238" stroke-linecap="round" stroke-linejoin="round"/>
<path d="M142.451 162.046H138.109C137.577 162.046 137.066 162.255 136.689 162.627C136.313 162.999 136.1 163.503 136.099 164.03V165.132C136.099 167.417 137.968 170.317 140.277 170.317C142.586 170.317 144.455 167.417 144.455 165.132V164.03C144.455 163.504 144.244 162.999 143.868 162.627C143.492 162.255 142.982 162.046 142.451 162.046Z" fill="white" stroke="#263238" stroke-linecap="round" stroke-linejoin="round"/>
<path d="M152.858 162.046H148.516C147.984 162.046 147.475 162.255 147.099 162.627C146.723 162.999 146.512 163.504 146.512 164.03V165.132C146.512 167.417 148.381 170.317 150.684 170.317C152.987 170.317 154.862 167.417 154.862 165.132V164.03C154.862 163.504 154.651 162.999 154.275 162.627C153.899 162.255 153.39 162.046 152.858 162.046V162.046Z" fill="white" stroke="#263238" stroke-linecap="round" stroke-linejoin="round"/>
<path d="M163.265 162.046H158.923C158.392 162.046 157.882 162.255 157.506 162.627C157.13 162.999 156.919 163.504 156.919 164.03V165.132C156.919 167.417 158.788 170.317 161.097 170.317C163.406 170.317 165.269 167.417 165.269 165.132V164.03C165.269 163.504 165.058 162.999 164.682 162.627C164.307 162.255 163.797 162.046 163.265 162.046V162.046Z" fill="white" stroke="#263238" stroke-linecap="round" stroke-linejoin="round"/>
<path d="M173.673 162.046H169.354C169.091 162.046 168.83 162.097 168.587 162.197C168.344 162.297 168.123 162.443 167.937 162.627C167.751 162.811 167.603 163.03 167.503 163.271C167.402 163.511 167.35 163.769 167.35 164.03V165.132C167.35 167.417 169.219 170.317 171.528 170.317C173.837 170.317 175.706 167.417 175.706 165.132V164.03C175.706 163.767 175.652 163.507 175.55 163.265C175.447 163.023 175.296 162.803 175.107 162.619C174.918 162.434 174.694 162.289 174.448 162.19C174.202 162.092 173.938 162.043 173.673 162.046V162.046Z" fill="white" stroke="#263238" stroke-linecap="round" stroke-linejoin="round"/>
<path d="M184.086 162.046H179.744C179.212 162.046 178.701 162.255 178.325 162.627C177.948 162.999 177.735 163.503 177.734 164.03V165.132C177.734 167.417 179.603 170.317 181.912 170.317C184.221 170.317 186.09 167.417 186.09 165.132V164.03C186.09 163.504 185.879 162.999 185.503 162.627C185.127 162.255 184.618 162.046 184.086 162.046V162.046Z" fill="white" stroke="#263238" stroke-linecap="round" stroke-linejoin="round"/>
<path d="M194.493 162.046H190.151C189.62 162.046 189.11 162.255 188.734 162.627C188.358 162.999 188.147 163.504 188.147 164.03V165.132C188.147 167.417 190.016 170.317 192.319 170.317C194.622 170.317 196.497 167.417 196.497 165.132V164.03C196.497 163.504 196.286 162.999 195.91 162.627C195.535 162.255 195.025 162.046 194.493 162.046Z" fill="white" stroke="#263238" stroke-linecap="round" stroke-linejoin="round"/>
<path d="M204.901 162.046H200.559C200.027 162.046 199.518 162.255 199.142 162.627C198.766 162.999 198.555 163.504 198.555 164.03V165.132C198.555 167.417 200.424 170.317 202.733 170.317C205.042 170.317 206.905 167.417 206.905 165.132V164.03C206.905 163.504 206.694 162.999 206.318 162.627C205.942 162.255 205.433 162.046 204.901 162.046V162.046Z" fill="white" stroke="#263238" stroke-linecap="round" stroke-linejoin="round"/>
<path d="M85.1984 151.484H80.8679C80.3364 151.484 79.8266 151.693 79.4508 152.065C79.0749 152.437 78.8638 152.942 78.8638 153.468V154.57C78.8638 156.849 80.7331 159.755 83.0419 159.755C85.3508 159.755 87.2143 156.855 87.2143 154.57V153.468C87.2143 153.206 87.162 152.948 87.0606 152.706C86.9591 152.465 86.8105 152.246 86.6231 152.061C86.4358 151.877 86.2135 151.731 85.969 151.632C85.7245 151.533 85.4626 151.483 85.1984 151.484V151.484Z" fill="white" stroke="#263238" stroke-linecap="round" stroke-linejoin="round"/>
<path d="M95.6061 151.484H91.2639C90.7324 151.484 90.2226 151.693 89.8468 152.065C89.4709 152.437 89.2598 152.942 89.2598 153.468V154.57C89.2598 156.849 91.1291 159.755 93.4379 159.755C95.7468 159.755 97.6161 156.855 97.6161 154.57V153.468C97.6146 152.941 97.4021 152.437 97.0253 152.065C96.6486 151.693 96.1382 151.484 95.6061 151.484V151.484Z" fill="white" stroke="#263238" stroke-linecap="round" stroke-linejoin="round"/>
<path d="M106.019 151.484H101.677C101.145 151.484 100.635 151.693 100.258 152.065C99.881 152.437 99.6685 152.941 99.667 153.468V154.57C99.667 156.849 101.542 159.755 103.845 159.755C106.148 159.755 108.023 156.855 108.023 154.57V153.468C108.023 152.942 107.812 152.437 107.436 152.065C107.061 151.693 106.551 151.484 106.019 151.484V151.484Z" fill="white" stroke="#263238" stroke-linecap="round" stroke-linejoin="round"/>
<path d="M116.426 151.484H112.084C111.553 151.484 111.043 151.693 110.667 152.065C110.291 152.437 110.08 152.942 110.08 153.468V154.57C110.08 156.849 111.949 159.755 114.252 159.755C116.555 159.755 118.431 156.855 118.431 154.57V153.468C118.431 153.207 118.379 152.95 118.278 152.709C118.177 152.468 118.03 152.25 117.844 152.065C117.657 151.881 117.437 151.735 117.193 151.635C116.95 151.536 116.69 151.484 116.426 151.484V151.484Z" fill="white" stroke="#263238" stroke-linecap="round" stroke-linejoin="round"/>
<path d="M126.834 151.484H122.474C121.942 151.484 121.433 151.693 121.057 152.065C120.681 152.437 120.47 152.942 120.47 153.468V154.57C120.47 156.849 122.339 159.755 124.648 159.755C126.957 159.755 128.82 156.855 128.82 154.57V153.468C128.82 152.945 128.612 152.443 128.239 152.071C127.867 151.7 127.362 151.489 126.834 151.484V151.484Z" fill="white" stroke="#263238" stroke-linecap="round" stroke-linejoin="round"/>
<path d="M137.241 151.484H132.899C132.368 151.484 131.858 151.693 131.482 152.065C131.106 152.437 130.895 152.942 130.895 153.468V154.57C130.895 156.849 132.764 159.755 135.073 159.755C137.382 159.755 139.251 156.855 139.251 154.57V153.468C139.25 152.941 139.037 152.437 138.661 152.065C138.284 151.693 137.773 151.484 137.241 151.484V151.484Z" fill="white" stroke="#263238" stroke-linecap="round" stroke-linejoin="round"/>
<path d="M147.672 151.484H143.33C142.798 151.484 142.287 151.693 141.911 152.065C141.534 152.437 141.321 152.941 141.32 153.468V154.57C141.32 156.849 143.195 159.755 145.498 159.755C147.801 159.755 149.676 156.855 149.676 154.57V153.468C149.676 152.942 149.465 152.437 149.089 152.065C148.713 151.693 148.204 151.484 147.672 151.484V151.484Z" fill="white" stroke="#263238" stroke-linecap="round" stroke-linejoin="round"/>
<path d="M158.062 151.484H153.719C153.188 151.484 152.678 151.693 152.302 152.065C151.926 152.437 151.715 152.942 151.715 153.468V154.57C151.715 156.849 153.585 159.755 155.888 159.755C158.191 159.755 160.066 156.855 160.066 154.57V153.468C160.066 152.942 159.855 152.437 159.479 152.065C159.103 151.693 158.593 151.484 158.062 151.484Z" fill="white" stroke="#263238" stroke-linecap="round" stroke-linejoin="round"/>
<path d="M168.469 151.484H164.127C163.595 151.484 163.085 151.693 162.71 152.065C162.334 152.437 162.123 152.942 162.123 153.468V154.57C162.123 156.849 163.992 159.755 166.301 159.755C168.61 159.755 170.473 156.855 170.473 154.57V153.468C170.473 152.942 170.262 152.437 169.886 152.065C169.51 151.693 169 151.484 168.469 151.484Z" fill="white" stroke="#263238" stroke-linecap="round" stroke-linejoin="round"/>
<path d="M178.877 151.484H174.534C174.003 151.484 173.493 151.693 173.117 152.065C172.741 152.437 172.53 152.942 172.53 153.468V154.57C172.53 156.849 174.4 159.755 176.708 159.755C179.017 159.755 180.887 156.855 180.887 154.57V153.468C180.885 152.941 180.673 152.437 180.296 152.065C179.919 151.693 179.409 151.484 178.877 151.484V151.484Z" fill="white" stroke="#263238" stroke-linecap="round" stroke-linejoin="round"/>
<path d="M189.278 151.484H184.936C184.404 151.484 183.893 151.693 183.517 152.065C183.14 152.437 182.927 152.941 182.926 153.468V154.57C182.926 156.849 184.801 159.755 187.104 159.755C189.407 159.755 191.282 156.855 191.282 154.57V153.468C191.282 152.942 191.071 152.437 190.695 152.065C190.319 151.693 189.81 151.484 189.278 151.484Z" fill="white" stroke="#263238" stroke-linecap="round" stroke-linejoin="round"/>
<path d="M199.697 151.484H195.355C194.828 151.492 194.326 151.704 193.956 152.075C193.587 152.447 193.38 152.947 193.38 153.468V154.57C193.38 156.849 195.249 159.755 197.552 159.755C199.855 159.755 201.73 156.855 201.73 154.57V153.468C201.73 153.205 201.678 152.945 201.575 152.702C201.473 152.46 201.322 152.24 201.133 152.055C200.944 151.87 200.719 151.725 200.473 151.627C200.226 151.529 199.963 151.48 199.697 151.484V151.484Z" fill="white" stroke="#263238" stroke-linecap="round" stroke-linejoin="round"/>
<path d="M210.105 151.484H205.762C205.231 151.484 204.721 151.693 204.345 152.065C203.969 152.437 203.758 152.942 203.758 153.468V154.57C203.758 156.849 205.628 159.755 207.936 159.755C210.245 159.755 212.109 156.855 212.109 154.57V153.468C212.109 152.942 211.898 152.437 211.522 152.065C211.146 151.693 210.636 151.484 210.105 151.484V151.484Z" fill="white" stroke="#263238" stroke-linecap="round" stroke-linejoin="round"/>
<path d="M185.235 173.043H105.726C104.687 173.043 103.845 173.877 103.845 174.905V180.554C103.845 181.582 104.687 182.416 105.726 182.416H185.235C186.274 182.416 187.116 181.582 187.116 180.554V174.905C187.116 173.877 186.274 173.043 185.235 173.043Z" fill="white" stroke="#263238" stroke-linecap="round" stroke-linejoin="round"/>
<path d="M195.883 173.594H191.54C191.009 173.594 190.499 173.803 190.123 174.175C189.747 174.547 189.536 175.052 189.536 175.578V176.68C189.536 178.965 191.405 181.865 193.714 181.865C196.023 181.865 197.887 178.965 197.887 176.68V175.578C197.887 175.052 197.676 174.547 197.3 174.175C196.924 173.803 196.414 173.594 195.883 173.594Z" fill="white" stroke="#263238" stroke-linecap="round" stroke-linejoin="round"/>
<path d="M99.4206 173.594H95.0783C94.5468 173.594 94.0371 173.803 93.6612 174.175C93.2854 174.547 93.0742 175.052 93.0742 175.578V176.68C93.0742 178.965 94.9436 181.865 97.2524 181.865C99.5612 181.865 101.431 178.965 101.431 176.68V175.578C101.429 175.051 101.217 174.546 100.84 174.175C100.463 173.803 99.9527 173.594 99.4206 173.594V173.594Z" fill="white" stroke="#263238" stroke-linecap="round" stroke-linejoin="round"/>
<path opacity="0.2" d="M90.6427 143.364C90.853 143.365 91.0628 143.385 91.2697 143.422C91.2697 143.382 91.2697 143.341 91.2697 143.3V142.198C91.2682 141.97 91.1755 141.752 91.0119 141.591C90.8483 141.43 90.6271 141.34 90.3966 141.34H86.0543C85.8248 141.342 85.605 141.433 85.4427 141.593C85.2804 141.754 85.1885 141.971 85.187 142.198V143.3C85.187 144.884 86.359 146.879 87.742 147.279C87.3142 145.522 88.2752 143.364 90.6427 143.364Z" fill="black"/>
<path opacity="0.2" d="M101.284 143.068C101.417 143.06 101.55 143.06 101.683 143.068V142.175C101.681 141.948 101.589 141.731 101.427 141.57C101.265 141.409 101.045 141.318 100.815 141.317H96.4732C96.2427 141.317 96.0215 141.407 95.8579 141.568C95.6943 141.729 95.6016 141.947 95.6001 142.175V143.277C95.6001 145.017 96.9889 147.192 98.5301 147.337C97.821 145.539 98.7528 143.068 101.284 143.068Z" fill="black"/>
<path opacity="0.2" d="M112.002 142.918H112.09V142.193C112.09 141.965 111.999 141.747 111.836 141.586C111.673 141.425 111.453 141.334 111.223 141.334H106.88C106.65 141.334 106.429 141.425 106.265 141.585C106.102 141.746 106.009 141.965 106.007 142.193V143.295C106.007 145.064 107.484 147.355 109.049 147.355C109.125 147.36 109.201 147.36 109.277 147.355C108.492 145.522 109.4 142.918 112.002 142.918Z" fill="black"/>
<path opacity="0.2" d="M121.748 142.622C121.991 142.615 122.235 142.634 122.474 142.68V142.175C122.474 141.948 122.383 141.729 122.22 141.568C122.058 141.407 121.837 141.317 121.607 141.317H117.265C117.035 141.317 116.814 141.407 116.651 141.568C116.489 141.729 116.397 141.948 116.397 142.175V143.277C116.397 144.936 117.687 147.047 119.14 147.337C118.144 145.516 119.005 142.622 121.748 142.622Z" fill="black"/>
<path opacity="0.2" d="M132.688 142.622H132.911V142.187C132.909 141.959 132.817 141.74 132.653 141.58C132.489 141.419 132.268 141.328 132.038 141.328H127.695C127.466 141.33 127.246 141.421 127.084 141.582C126.922 141.742 126.83 141.96 126.828 142.187V143.289C126.828 145.058 128.305 147.349 129.869 147.349C129.949 147.355 130.03 147.355 130.11 147.349C129.084 145.522 129.946 142.622 132.688 142.622Z" fill="black"/>
<path opacity="0.2" d="M143.183 142.68H143.318V142.175C143.316 141.948 143.225 141.731 143.062 141.57C142.9 141.409 142.68 141.318 142.451 141.317H138.108C137.878 141.317 137.657 141.407 137.493 141.568C137.33 141.729 137.237 141.947 137.235 142.175V143.277C137.235 145.046 138.712 147.337 140.277 147.337C140.372 147.346 140.468 147.346 140.564 147.337C139.603 145.51 140.476 142.68 143.183 142.68Z" fill="black"/>
<path opacity="0.2" d="M153.227 142.622C153.394 142.624 153.56 142.636 153.725 142.657V142.198C153.725 141.971 153.634 141.752 153.471 141.592C153.309 141.431 153.088 141.34 152.858 141.34H148.516C148.286 141.34 148.065 141.431 147.902 141.592C147.74 141.752 147.648 141.971 147.648 142.198V143.3C147.648 145.04 149.102 147.326 150.655 147.36C149.617 145.539 150.473 142.622 153.227 142.622Z" fill="black"/>
<path opacity="0.2" d="M164.133 142.773V142.193C164.133 141.965 164.042 141.747 163.879 141.586C163.716 141.425 163.496 141.334 163.266 141.334H158.923C158.693 141.334 158.473 141.425 158.31 141.586C158.148 141.747 158.056 141.965 158.056 142.193V143.295C158.056 145.064 159.527 147.355 161.098 147.355C161.255 147.352 161.411 147.327 161.56 147.279C160.717 145.493 161.578 142.854 164.133 142.773Z" fill="black"/>
<path opacity="0.2" d="M173.691 142.546C173.979 142.546 174.267 142.583 174.546 142.657V142.198C174.545 141.97 174.452 141.752 174.288 141.591C174.125 141.43 173.903 141.34 173.673 141.34H169.354C169.125 141.342 168.905 141.433 168.743 141.593C168.58 141.754 168.488 141.971 168.487 142.198V143.3C168.487 144.936 169.741 147.001 171.165 147.314C170.069 145.499 170.919 142.546 173.691 142.546Z" fill="black"/>
<path opacity="0.2" d="M184.332 142.546C184.541 142.547 184.748 142.567 184.953 142.604V142.198C184.952 141.971 184.86 141.754 184.698 141.593C184.535 141.433 184.316 141.342 184.086 141.34H179.744C179.513 141.34 179.292 141.43 179.128 141.591C178.965 141.752 178.872 141.97 178.871 142.198V143.3C178.871 145.04 180.277 147.25 181.801 147.36C180.699 145.539 181.543 142.546 184.332 142.546Z" fill="black"/>
<path opacity="0.2" d="M194.903 142.842C195.056 142.845 195.209 142.856 195.361 142.877V142.198C195.361 141.971 195.269 141.752 195.107 141.592C194.944 141.431 194.723 141.34 194.493 141.34H190.151C190.037 141.34 189.924 141.362 189.819 141.405C189.714 141.449 189.618 141.512 189.538 141.592C189.457 141.671 189.393 141.766 189.35 141.87C189.306 141.974 189.284 142.086 189.284 142.198V143.3C189.284 145.04 190.69 147.244 192.214 147.36C191.364 145.528 192.261 142.842 194.903 142.842Z" fill="black"/>
<path opacity="0.2" d="M205.768 142.709V142.198C205.768 141.971 205.677 141.752 205.514 141.592C205.352 141.431 205.131 141.34 204.901 141.34H200.559C200.329 141.34 200.108 141.431 199.945 141.592C199.783 141.752 199.691 141.971 199.691 142.198V143.3C199.691 145.069 201.162 147.36 202.733 147.36C202.959 147.357 203.182 147.31 203.389 147.221C202.557 145.47 203.342 142.906 205.768 142.709Z" fill="black"/>
<path opacity="0.2" d="M90.9415 164.14C91.0528 164.134 91.1643 164.134 91.2755 164.14V164.018C91.274 163.79 91.1813 163.572 91.0177 163.411C90.8542 163.25 90.633 163.16 90.4024 163.16H86.0601C85.8306 163.161 85.6109 163.252 85.4486 163.413C85.2863 163.574 85.1944 163.791 85.1929 164.018V165.12C85.1929 166.889 86.6696 169.18 88.2342 169.18C88.3424 169.177 88.4502 169.166 88.5565 169.145C87.2439 167.382 88.0408 164.14 90.9415 164.14Z" fill="black"/>
<path opacity="0.2" d="M101.138 164.14C101.32 164.14 101.503 164.156 101.683 164.186V164.036C101.681 163.808 101.589 163.591 101.427 163.43C101.265 163.27 101.045 163.179 100.815 163.177H96.4732C96.2427 163.177 96.0215 163.267 95.8579 163.428C95.6943 163.589 95.6016 163.807 95.6001 164.036V165.138C95.6001 166.907 97.0768 169.198 98.6414 169.198H98.7704C97.4284 167.411 98.2195 164.14 101.138 164.14Z" fill="black"/>
<path opacity="0.2" d="M111.481 164.285C111.677 164.285 111.873 164.303 112.067 164.337V164.03C112.067 163.917 112.044 163.805 112.001 163.701C111.957 163.597 111.893 163.503 111.813 163.423C111.732 163.343 111.636 163.28 111.531 163.237C111.426 163.194 111.313 163.171 111.199 163.171H106.857C106.626 163.171 106.405 163.262 106.242 163.422C106.078 163.583 105.985 163.802 105.984 164.03V165.132C105.984 166.872 107.437 169.151 108.99 169.192C107.824 167.388 108.638 164.285 111.481 164.285Z" fill="black"/>
<path opacity="0.2" d="M122.046 164.36C122.197 164.361 122.348 164.371 122.498 164.389V164.03C122.498 163.917 122.475 163.805 122.432 163.701C122.388 163.597 122.324 163.503 122.244 163.423C122.163 163.343 122.068 163.28 121.962 163.237C121.857 163.194 121.744 163.171 121.63 163.171H117.288C117.174 163.171 117.062 163.194 116.956 163.237C116.851 163.28 116.755 163.343 116.675 163.423C116.594 163.503 116.53 163.597 116.487 163.701C116.443 163.805 116.421 163.917 116.421 164.03V165.132C116.421 166.901 117.892 169.192 119.462 169.192H119.533C118.407 167.376 119.245 164.36 122.046 164.36Z" fill="black"/>
<path opacity="0.2" d="M132.243 164.14C132.467 164.14 132.691 164.161 132.911 164.204V164.036C132.909 163.807 132.817 163.589 132.653 163.428C132.489 163.267 132.268 163.177 132.038 163.177H127.695C127.466 163.179 127.246 163.27 127.084 163.43C126.922 163.591 126.83 163.808 126.828 164.036V165.138C126.828 166.907 128.305 169.198 129.869 169.198C128.533 167.423 129.319 164.14 132.243 164.14Z" fill="black"/>
<path opacity="0.2" d="M142.808 164.21C142.979 164.211 143.149 164.224 143.318 164.25V164.03C143.316 163.803 143.225 163.585 143.062 163.425C142.9 163.264 142.68 163.173 142.451 163.171H138.108C137.878 163.171 137.657 163.262 137.493 163.422C137.33 163.583 137.237 163.802 137.235 164.03V165.132C137.235 166.901 138.712 169.192 140.277 169.192H140.388C139.122 167.394 139.931 164.21 142.808 164.21Z" fill="black"/>
<path opacity="0.2" d="M153.602 164.43H153.725V164.024C153.725 163.796 153.634 163.578 153.471 163.417C153.309 163.256 153.088 163.166 152.858 163.166H148.516C148.286 163.166 148.065 163.256 147.902 163.417C147.74 163.578 147.648 163.796 147.648 164.024V165.126C147.648 166.895 149.119 169.186 150.684 169.186C150.798 169.184 150.912 169.171 151.024 169.145C150.016 167.336 150.854 164.43 153.602 164.43Z" fill="black"/>
<path opacity="0.2" d="M164.08 164.21H164.115V164.03C164.115 163.917 164.093 163.805 164.049 163.701C164.006 163.597 163.942 163.503 163.861 163.423C163.781 163.343 163.685 163.28 163.58 163.237C163.475 163.194 163.362 163.171 163.248 163.171H158.923C158.81 163.171 158.697 163.194 158.592 163.237C158.486 163.28 158.391 163.343 158.31 163.423C158.23 163.503 158.166 163.597 158.122 163.701C158.079 163.805 158.056 163.917 158.056 164.03V165.132C158.056 166.901 159.527 169.192 161.098 169.192C161.277 169.189 161.455 169.158 161.625 169.099C160.435 167.301 161.262 164.21 164.08 164.21Z" fill="black"/>
<path opacity="0.2" d="M174.212 163.989H174.54C174.531 163.767 174.436 163.557 174.274 163.402C174.113 163.248 173.898 163.161 173.673 163.16H169.354C169.125 163.161 168.905 163.252 168.743 163.413C168.58 163.574 168.488 163.791 168.487 164.018V165.12C168.487 166.889 169.964 169.18 171.528 169.18C171.671 169.176 171.813 169.154 171.95 169.116C170.479 167.388 171.241 163.989 174.212 163.989Z" fill="black"/>
<path opacity="0.2" d="M184.936 164.14V164.036C184.934 163.808 184.842 163.591 184.68 163.43C184.518 163.27 184.298 163.179 184.068 163.177H179.726C179.496 163.177 179.274 163.267 179.111 163.428C178.947 163.589 178.855 163.807 178.853 164.036V165.138C178.853 166.907 180.33 169.198 181.894 169.198C182.094 169.194 182.292 169.159 182.48 169.093C181.256 167.295 182.064 164.14 184.936 164.14Z" fill="black"/>
<path opacity="0.2" d="M195.138 164.14H195.373V164.024C195.373 163.911 195.35 163.8 195.307 163.695C195.263 163.591 195.199 163.497 195.119 163.417C195.038 163.337 194.943 163.274 194.837 163.231C194.732 163.188 194.619 163.166 194.505 163.166H190.163C189.933 163.166 189.713 163.256 189.55 163.417C189.387 163.578 189.296 163.796 189.296 164.024V165.126C189.296 166.895 190.767 169.186 192.331 169.186C192.47 169.184 192.608 169.165 192.742 169.128C191.435 167.353 192.238 164.14 195.138 164.14Z" fill="black"/>
<path opacity="0.2" d="M205.393 164.581C205.522 164.581 205.651 164.581 205.768 164.581V164.001C205.768 163.773 205.677 163.555 205.514 163.394C205.352 163.233 205.131 163.142 204.901 163.142H200.559C200.329 163.142 200.108 163.233 199.945 163.394C199.783 163.555 199.691 163.773 199.691 164.001V165.103C199.691 166.872 201.162 169.163 202.733 169.163C201.824 167.365 202.703 164.581 205.393 164.581Z" fill="black"/>
<path opacity="0.2" d="M85.9958 153.752H86.0719V153.468C86.0704 153.24 85.9777 153.021 85.8141 152.861C85.6506 152.7 85.4294 152.61 85.1988 152.61H80.8683C80.6382 152.61 80.4176 152.7 80.255 152.861C80.0923 153.022 80.001 153.24 80.001 153.468V154.57C80.001 156.339 81.4718 158.63 83.0423 158.63C83.1932 158.626 83.343 158.603 83.4877 158.56C82.3626 156.751 83.2123 153.752 85.9958 153.752Z" fill="black"/>
<path opacity="0.2" d="M96.1862 153.752H96.4792V153.456C96.4776 153.228 96.3849 153.01 96.2214 152.849C96.0578 152.688 95.8366 152.598 95.606 152.598H91.2638C91.0342 152.599 90.8145 152.69 90.6522 152.851C90.4899 153.012 90.398 153.229 90.3965 153.456V154.558C90.3965 156.327 91.8732 158.618 93.4378 158.618C93.5237 158.624 93.6098 158.624 93.6957 158.618C92.5412 156.803 93.3734 153.752 96.1862 153.752Z" fill="black"/>
<path opacity="0.2" d="M106.834 153.752H106.886V153.468C106.885 153.241 106.793 153.023 106.631 152.863C106.468 152.702 106.249 152.611 106.019 152.61H101.677C101.562 152.608 101.447 152.629 101.34 152.671C101.234 152.714 101.136 152.777 101.054 152.857C100.972 152.936 100.906 153.031 100.861 153.136C100.816 153.241 100.793 153.354 100.792 153.468V154.57C100.792 156.339 102.269 158.63 103.833 158.63C103.991 158.628 104.147 158.603 104.296 158.555C103.2 156.751 104.038 153.752 106.834 153.752Z" fill="black"/>
<path opacity="0.2" d="M117.024 153.7H117.294V153.48C117.294 153.252 117.202 153.034 117.04 152.873C116.877 152.712 116.656 152.621 116.426 152.621H112.084C111.854 152.621 111.633 152.712 111.471 152.873C111.308 153.034 111.217 153.252 111.217 153.48V154.582C111.217 156.351 112.688 158.642 114.252 158.642C114.359 158.639 114.464 158.628 114.569 158.607C113.356 156.803 114.176 153.7 117.024 153.7Z" fill="black"/>
<path opacity="0.2" d="M127.162 153.752C127.349 153.752 127.535 153.768 127.719 153.799V153.468C127.719 153.24 127.628 153.022 127.465 152.861C127.302 152.7 127.082 152.61 126.852 152.61H122.474C122.244 152.61 122.024 152.7 121.861 152.861C121.698 153.022 121.607 153.24 121.607 153.468V154.57C121.607 156.339 123.078 158.63 124.648 158.63C123.488 156.826 124.314 153.752 127.162 153.752Z" fill="black"/>
<path opacity="0.2" d="M137.64 153.381C137.796 153.382 137.953 153.391 138.109 153.41C138.092 153.193 137.994 152.99 137.833 152.842C137.672 152.693 137.461 152.61 137.241 152.61H132.899C132.669 152.611 132.45 152.702 132.287 152.863C132.125 153.023 132.033 153.241 132.032 153.468V154.57C132.032 156.339 133.508 158.63 135.073 158.63C135.186 158.628 135.297 158.614 135.407 158.589C133.884 156.867 134.628 153.381 137.64 153.381Z" fill="black"/>
<path opacity="0.2" d="M148.129 153.822C148.264 153.822 148.399 153.822 148.522 153.822V153.445C148.52 153.218 148.428 153 148.266 152.839C148.104 152.679 147.884 152.588 147.654 152.586H143.312C143.082 152.586 142.86 152.677 142.697 152.837C142.533 152.998 142.441 153.217 142.439 153.445V154.547C142.439 156.316 143.916 158.607 145.48 158.607H145.597C144.502 156.809 145.328 153.822 148.129 153.822Z" fill="black"/>
<path opacity="0.2" d="M158.929 153.468C158.929 153.24 158.837 153.022 158.675 152.861C158.512 152.7 158.292 152.61 158.062 152.61H153.719C153.605 152.61 153.493 152.632 153.387 152.675C153.282 152.718 153.187 152.781 153.106 152.861C153.026 152.941 152.962 153.035 152.918 153.14C152.874 153.244 152.852 153.355 152.852 153.468V154.57C152.852 156.339 154.323 158.63 155.888 158.63C156.2 158.622 156.506 158.539 156.778 158.386C155.595 156.658 156.309 153.7 158.929 153.468Z" fill="black"/>
<path opacity="0.2" d="M169.354 153.7V153.48C169.354 153.252 169.263 153.034 169.1 152.873C168.937 152.712 168.717 152.621 168.487 152.621H164.145C163.915 152.621 163.694 152.712 163.531 152.873C163.369 153.034 163.277 153.252 163.277 153.48V154.582C163.277 156.351 164.748 158.642 166.319 158.642C166.57 158.638 166.818 158.58 167.045 158.473C165.973 156.704 166.741 153.845 169.354 153.7Z" fill="black"/>
<path opacity="0.2" d="M179.386 153.526C179.509 153.526 179.632 153.526 179.75 153.526V153.451C179.748 153.222 179.655 153.004 179.492 152.843C179.328 152.682 179.107 152.592 178.877 152.592H174.534C174.305 152.594 174.085 152.685 173.923 152.845C173.76 153.006 173.669 153.223 173.667 153.451V154.553C173.667 156.322 175.144 158.613 176.708 158.613C176.819 158.611 176.929 158.597 177.036 158.572C175.677 156.826 176.456 153.526 179.386 153.526Z" fill="black"/>
<path opacity="0.2" d="M190.157 153.903V153.468C190.155 153.241 190.063 153.023 189.901 152.863C189.739 152.702 189.519 152.611 189.29 152.61H184.947C184.717 152.61 184.496 152.7 184.332 152.861C184.168 153.021 184.076 153.24 184.074 153.468V154.57C184.074 156.339 185.551 158.63 187.116 158.63C187.293 158.627 187.469 158.598 187.637 158.543C186.682 156.745 187.52 153.973 190.157 153.903Z" fill="black"/>
<path opacity="0.2" d="M200.072 153.601C200.237 153.604 200.401 153.615 200.565 153.636V153.468C200.565 153.24 200.473 153.022 200.311 152.861C200.148 152.7 199.927 152.61 199.697 152.61H195.355C195.241 152.61 195.128 152.632 195.023 152.675C194.918 152.718 194.822 152.781 194.742 152.861C194.661 152.941 194.597 153.035 194.554 153.14C194.51 153.244 194.488 153.355 194.488 153.468V154.57C194.488 156.339 195.959 158.63 197.523 158.63C197.578 158.633 197.633 158.633 197.687 158.63C196.375 156.838 197.172 153.601 200.072 153.601Z" fill="black"/>
<path opacity="0.2" d="M210.567 154.048C210.702 154.039 210.837 154.039 210.972 154.048V153.468C210.972 153.24 210.88 153.022 210.718 152.861C210.555 152.7 210.335 152.61 210.105 152.61H205.762C205.532 152.61 205.312 152.7 205.149 152.861C204.986 153.022 204.895 153.24 204.895 153.468V154.57C204.895 156.31 206.354 158.63 207.919 158.63C207.005 156.803 207.889 154.048 210.567 154.048Z" fill="black"/>
<path opacity="0.2" d="M185.979 180.589V174.87C185.979 174.482 185.662 174.168 185.27 174.168H105.691C105.3 174.168 104.982 174.482 104.982 174.87V180.589C104.982 180.976 105.3 181.291 105.691 181.291H185.27C185.662 181.291 185.979 180.976 185.979 180.589Z" fill="black"/>
<path opacity="0.2" d="M196.75 176.152V175.572C196.75 175.459 196.727 175.347 196.684 175.243C196.64 175.139 196.576 175.045 196.496 174.965C196.415 174.885 196.32 174.822 196.214 174.779C196.109 174.736 195.996 174.713 195.882 174.713H191.54C191.426 174.713 191.313 174.736 191.208 174.779C191.103 174.822 191.007 174.885 190.927 174.965C190.846 175.045 190.782 175.139 190.739 175.243C190.695 175.347 190.673 175.459 190.673 175.572V176.674C190.673 178.443 192.144 180.734 193.714 180.734C193.845 180.731 193.974 180.713 194.101 180.682C193.234 178.872 194.119 176.169 196.75 176.152Z" fill="black"/>
<path opacity="0.2" d="M99.7843 175.781C99.955 175.782 100.125 175.795 100.294 175.821V175.578C100.293 175.349 100.2 175.131 100.036 174.97C99.8727 174.809 99.6515 174.719 99.421 174.719H95.0787C94.8492 174.721 94.6295 174.812 94.4671 174.972C94.3048 175.133 94.213 175.35 94.2114 175.578V176.68C94.2114 178.449 95.6881 180.74 97.2528 180.74H97.3524C96.1042 178.942 96.9246 175.781 99.7843 175.781Z" fill="black"/>
<path opacity="0.2" d="M73.6601 54.8099H217.3C218.287 54.8099 219.234 55.198 219.932 55.8887C220.629 56.5794 221.021 57.5161 221.021 58.4929V90.9729H69.939V58.4929C69.939 57.5161 70.331 56.5794 71.0288 55.8887C71.7267 55.198 72.6732 54.8099 73.6601 54.8099V54.8099Z" fill="black"/>
<path d="M205.557 60.9347H85.4273C84.4256 52.7007 82.6601 44.5754 80.1533 36.6617H210.855C208.308 44.5664 206.535 52.6946 205.557 60.9347V60.9347Z" fill="white"/>
<path opacity="0.2" d="M206.741 53.1106C205.867 57.8318 205.569 60.9348 205.569 60.9348H85.4386C85.4386 60.9348 85.1339 57.8898 84.2373 53.1106H206.741Z" fill="black"/>
<path d="M205.557 60.9347H85.4273C84.4256 52.7007 82.6601 44.5754 80.1533 36.6617H210.855C208.308 44.5664 206.535 52.6946 205.557 60.9347V60.9347Z" stroke="#263238" stroke-linecap="round" stroke-linejoin="round"/>
<path d="M203.922 81.3739H86.0718V129.363H203.922V81.3739Z" fill="#263238"/>
<g opacity="0.4">
<path opacity="0.4" d="M142.058 125.118L142.679 125.147C143.461 113.179 144.242 101.193 145.023 89.1865C144.027 101.196 143.039 113.173 142.058 125.118Z" fill="white"/>
<path opacity="0.4" d="M140.054 124.967L140.675 125.019C142.03 113.129 143.384 101.187 144.736 89.1923C143.177 101.194 141.616 113.119 140.054 124.967Z" fill="white"/>
<path opacity="0.4" d="M138.103 124.746C138.308 124.746 138.519 124.793 138.724 124.816C140.646 113.054 142.58 101.177 144.525 89.1865C142.376 101.189 140.236 113.042 138.103 124.746Z" fill="white"/>
<path opacity="0.4" d="M136.127 124.45L136.754 124.549C139.247 112.949 141.759 101.156 144.29 89.1691C141.556 101.167 138.835 112.928 136.127 124.45Z" fill="white"/>
<path opacity="0.4" d="M134.159 124.085L134.792 124.213C137.839 112.833 140.927 101.156 144.056 89.1807C140.728 101.16 137.429 112.794 134.159 124.085Z" fill="white"/>
<path opacity="0.4" d="M132.202 123.644L132.835 123.801C136.427 112.677 140.119 101.14 143.822 89.1749C139.902 101.14 135.993 112.624 132.202 123.644Z" fill="white"/>
<path opacity="0.4" d="M130.25 123.122L130.889 123.308C134.991 112.497 139.286 101.117 143.587 89.1633C139.069 101.117 134.569 112.433 130.25 123.122Z" fill="white"/>
<path opacity="0.4" d="M128.334 122.531L128.973 122.734C133.608 112.294 138.472 101.094 143.371 89.1575C138.232 101.094 133.145 112.212 128.334 122.531Z" fill="white"/>
<path opacity="0.4" d="M126.388 121.852L127.033 122.084C132.166 112.038 137.622 101.065 143.118 89.1459C137.393 101.065 131.709 111.94 126.388 121.852Z" fill="white"/>
<path opacity="0.4" d="M124.49 121.086L125.134 121.353C130.737 111.76 136.784 101.053 142.884 89.1343C136.538 101.03 130.274 111.679 124.49 121.086Z" fill="white"/>
<path opacity="0.4" d="M122.609 120.228L123.253 120.535C129.301 111.458 135.94 100.989 142.65 89.1227C135.7 100.989 128.832 111.36 122.609 120.228Z" fill="white"/>
<path opacity="0.4" d="M120.757 119.277L121.401 119.625C127.847 111.116 135.096 100.943 142.415 89.1052C135.74 99.5345 128.51 109.606 120.757 119.277V119.277Z" fill="white"/>
<path opacity="0.4" d="M118.958 118.233C119.169 118.366 119.392 118.488 119.608 118.616C127.741 109.24 135.287 99.381 142.205 89.0938C135.126 99.3125 127.359 109.048 118.958 118.233Z" fill="white"/>
<path opacity="0.4" d="M117.159 117.079L117.797 117.514C126.573 108.669 134.647 99.1674 141.946 89.0938C134.495 99.0967 126.203 108.458 117.159 117.079V117.079Z" fill="white"/>
<path opacity="0.4" d="M141.712 89.0588C132.284 100.746 123.06 109.66 115.442 115.82L116.069 116.301C125.474 108.05 134.061 98.9274 141.712 89.0588V89.0588Z" fill="white"/>
<path opacity="0.4" d="M141.478 89.0415C131.434 100.642 121.619 109.121 113.772 114.457L114.393 114.985C122.134 109.313 131.698 100.671 141.478 89.0415Z" fill="white"/>
<path opacity="0.4" d="M141.226 89.024C130.578 100.537 120.206 108.518 112.184 112.972C112.377 113.169 112.57 113.367 112.77 113.552C120.716 108.738 130.859 100.566 141.226 89.024Z" fill="white"/>
<path opacity="0.4" d="M141.009 89.0009C129.781 100.398 118.87 107.851 110.719 111.389L111.305 112.021C119.374 108.094 130.039 100.433 141.009 89.0009Z" fill="white"/>
<path opacity="0.4" d="M109.371 109.695C109.541 109.927 109.717 110.159 109.893 110.386C118.067 107.399 129.231 100.27 140.781 88.9835C128.996 100.218 117.593 107.114 109.371 109.695Z" fill="white"/>
<path opacity="0.4" d="M108.175 107.932C108.328 108.176 108.486 108.419 108.644 108.663C116.848 106.621 128.498 100.061 140.546 88.9429C128.263 99.9977 116.409 106.314 108.175 107.932Z" fill="white"/>
<path opacity="0.4" d="M107.156 106.14C107.285 106.395 107.419 106.645 107.554 106.9C115.758 105.798 127.806 99.8179 140.312 88.9487C127.601 99.7135 115.36 105.444 107.156 106.14Z" fill="white"/>
<path opacity="0.4" d="M106.324 104.307C106.429 104.562 106.541 104.823 106.652 105.078C114.809 104.881 127.162 99.4931 140.054 88.9081C127.015 99.3829 114.469 104.51 106.324 104.307Z" fill="white"/>
<path opacity="0.4" d="M144.044 125.199H144.66C144.847 113.212 145.043 101.21 145.246 89.1923C144.836 101.202 144.435 113.204 144.044 125.199Z" fill="white"/>
<path opacity="0.4" d="M146.025 125.21H146.647C146.256 113.224 145.865 101.221 145.475 89.2039L146.025 125.21Z" fill="white"/>
<path opacity="0.4" d="M148.006 125.158H148.627C147.651 113.21 146.674 101.223 145.697 89.1981C146.467 101.208 147.236 113.195 148.006 125.158Z" fill="white"/>
<path opacity="0.4" d="M150.016 125.036L150.637 124.99C149.075 113.131 147.512 101.198 145.949 89.1923C147.293 101.198 148.649 113.146 150.016 125.036Z" fill="white"/>
<path opacity="0.4" d="M151.967 124.851L152.589 124.775C150.463 113.055 148.315 101.193 146.143 89.1865C148.1 101.193 150.041 113.081 151.967 124.851Z" fill="white"/>
<path opacity="0.4" d="M153.942 124.59L154.569 124.497C151.874 112.955 149.149 101.185 146.395 89.1865C148.926 101.189 151.442 112.99 153.942 124.59Z" fill="white"/>
<path opacity="0.4" d="M155.911 124.259L156.538 124.143C153.284 112.829 149.981 101.175 146.629 89.1807C149.746 101.175 152.841 112.868 155.911 124.259Z" fill="white"/>
<path opacity="0.4" d="M157.868 123.853L158.507 123.708C154.71 112.688 150.795 101.164 146.863 89.1749C150.579 101.165 154.247 112.725 157.868 123.853Z" fill="white"/>
<path opacity="0.4" d="M159.826 123.378L160.458 123.198C156.134 112.485 151.627 101.158 147.098 89.1633C151.405 101.146 155.694 112.52 159.826 123.378Z" fill="white"/>
<path opacity="0.4" d="M161.765 122.815L162.41 122.606C157.564 112.27 152.448 101.146 147.332 89.1575C152.243 101.123 157.118 112.334 161.765 122.815Z" fill="white"/>
<path opacity="0.4" d="M163.693 122.171L164.338 121.933C159.005 112.021 153.309 101.1 147.566 89.1459C153.081 101.1 158.548 112.096 163.693 122.171Z" fill="white"/>
<path opacity="0.4" d="M165.603 121.446C165.82 121.353 166.043 121.272 166.254 121.179C160.453 111.748 154.159 101.071 147.801 89.1343C153.924 101.071 159.978 111.83 165.603 121.446Z" fill="white"/>
<path opacity="0.4" d="M167.496 120.64L168.147 120.333C161.906 111.441 155.009 101.042 148.035 89.1285C154.768 101.03 161.425 111.534 167.496 120.64Z" fill="white"/>
<path opacity="0.4" d="M169.354 119.729C169.571 119.619 169.787 119.497 169.998 119.381C162.216 109.676 154.959 99.5703 148.258 89.1052C155.618 100.995 162.908 111.197 169.354 119.729Z" fill="white"/>
<path opacity="0.4" d="M171.194 118.726L171.85 118.343C163.412 109.124 155.613 99.3521 148.504 89.0938C155.447 99.4215 163.025 109.318 171.194 118.726V118.726Z" fill="white"/>
<path opacity="0.4" d="M148.738 89.0763C156.067 99.197 164.176 108.741 172.993 117.624L173.643 117.189C164.554 108.532 156.222 99.1272 148.738 89.0763V89.0763Z" fill="white"/>
<path opacity="0.4" d="M148.973 89.0588C156.66 98.9748 165.294 108.135 174.757 116.412C174.973 116.255 175.179 116.093 175.39 115.93C167.748 109.771 158.454 100.815 148.973 89.0588Z" fill="white"/>
<path opacity="0.4" d="M149.207 89.0415C159.052 100.74 168.674 109.417 176.438 115.089C176.649 114.915 176.866 114.741 177.071 114.562C169.195 109.237 159.316 100.734 149.207 89.0415Z" fill="white"/>
<path opacity="0.4" d="M149.43 89.024C159.89 100.624 170.086 108.854 178.056 113.662C178.261 113.471 178.454 113.268 178.642 113.082C170.614 108.634 160.165 100.624 149.43 89.024Z" fill="white"/>
<path opacity="0.4" d="M149.676 89.0009C160.734 100.52 171.481 108.216 179.562 112.114L180.148 111.476C171.997 107.978 160.997 100.496 149.676 89.0009Z" fill="white"/>
<path opacity="0.4" d="M181.01 110.467C181.191 110.235 181.361 110.003 181.537 109.765C173.304 107.242 161.795 100.323 149.893 88.9835C161.543 100.369 172.817 107.52 181.01 110.467Z" fill="white"/>
<path opacity="0.4" d="M182.281 108.721L182.762 107.979C174.517 106.442 162.551 100.108 150.139 88.9603C162.322 100.172 174.042 106.749 182.281 108.721Z" fill="white"/>
<path opacity="0.4" d="M183.418 106.917C183.559 106.662 183.693 106.407 183.828 106.146C175.624 105.566 163.254 99.8294 150.426 88.937C163.014 99.9222 175.214 105.914 183.418 106.917Z" fill="white"/>
<path opacity="0.4" d="M150.602 88.9081C163.635 99.6149 176.152 105.003 184.297 105.084C184.414 104.823 184.526 104.562 184.637 104.301C176.503 104.632 163.822 99.4989 150.602 88.9081Z" fill="white"/>
</g>
<path opacity="0.2" d="M128.334 90.0566C126.113 95.6942 128.516 112.097 144.543 112.097C160.57 112.097 166.389 100.572 165.738 93.4496L187.133 90.0392C187.133 90.0392 193.691 107.973 179.767 120.518C165.844 133.064 117.581 132.252 107.379 122.716C97.1764 113.181 102.837 94.3428 102.837 94.3428L128.334 90.0566Z" fill="black"/>
<path d="M222.235 65.7313V61.7757C222.234 61.6293 222.282 61.4867 222.369 61.3688C222.457 61.2508 222.58 61.1637 222.721 61.1203L225.651 60.2155V56.2599C225.651 55.7861 225.841 55.3317 226.18 54.9967C226.518 54.6617 226.977 54.4735 227.456 54.4735H230.972C231.145 54.4703 231.313 54.5338 231.44 54.6507C231.567 54.7675 231.643 54.9286 231.652 55.0999V56.3759C231.652 56.5503 231.582 56.7176 231.458 56.8414C231.334 56.9652 231.166 57.0356 230.99 57.0371H226.519V60.9057C226.516 61.0223 226.485 61.1366 226.426 61.2379C226.368 61.3393 226.285 61.4245 226.185 61.4857L223.688 62.9821V65.7371L222.235 65.7313Z" fill="#999999" stroke="#263238" stroke-linecap="round" stroke-linejoin="round"/>
<path d="M226.091 65.7313H222.235V77.1457H226.091V65.7313Z" fill="#263238"/>
<path d="M230.914 64.7627H226.091V78.1143H230.914V64.7627Z" fill="#757575"/>
<path opacity="0.2" d="M230.902 72.8943H226.091V78.1143H230.902V72.8943Z" fill="black"/>
<path d="M230.914 64.7627H226.091V78.1143H230.914V64.7627Z" stroke="#263238" stroke-linecap="round" stroke-linejoin="round"/>
<path d="M64.8702 77.1399H68.7261V65.7255H64.8702V77.1399Z" fill="#263238"/>
<path d="M60.0473 78.1085H64.8701V64.7569H60.0473V78.1085Z" fill="#757575"/>
<path opacity="0.2" d="M64.876 72.8943H60.0532V77.9867H64.876V72.8943Z" fill="black"/>
<path d="M60.0473 78.1085H64.8701V64.7569H60.0473V78.1085Z" stroke="#263238" stroke-linecap="round" stroke-linejoin="round"/>
<path d="M68.146 72.1171C68.4942 71.2129 68.5481 70.2236 68.3001 69.2876C68.0521 68.3517 67.5147 67.5158 66.763 66.8971L63.9268 64.5771C63.7463 64.4266 63.5365 64.3145 63.3103 64.2478C63.0841 64.1811 62.8465 64.1613 62.6122 64.1896C62.378 64.2179 62.1521 64.2937 61.9488 64.4123C61.7455 64.5309 61.569 64.6896 61.4304 64.8787L50.1851 80.2313C49.9711 80.5185 49.8561 80.8662 49.8569 81.2231V97.7125C49.8569 97.9338 49.9013 98.153 49.9876 98.3571C50.0739 98.5613 50.2003 98.7465 50.3595 98.9019C50.5187 99.0573 50.7075 99.1799 50.915 99.2625C51.1225 99.345 51.3445 99.386 51.5681 99.3829V99.3829C52.0157 99.3829 52.4449 99.2069 52.7614 98.8937C53.0779 98.5804 53.2557 98.1555 53.2557 97.7125V84.3203C53.2568 83.9897 53.3612 83.6676 53.5546 83.3981L61.9637 71.7981C62.0373 71.6962 62.1315 71.6106 62.2403 71.5467C62.3491 71.4827 62.4701 71.4418 62.5957 71.4266C62.7213 71.4113 62.8487 71.422 62.9699 71.458C63.0911 71.494 63.2034 71.5545 63.2998 71.6357L64.8468 72.9349C65.2298 73.2566 65.7157 73.4334 66.2181 73.4337V73.4337C66.6358 73.4312 67.0432 73.3043 67.387 73.0695C67.7309 72.8347 67.9954 72.5028 68.146 72.1171V72.1171Z" fill="white" stroke="#263238" stroke-linecap="round" stroke-linejoin="round"/>
<path d="M65.8253 70.615C66.2687 70.615 66.6281 70.2592 66.6281 69.8204C66.6281 69.3815 66.2687 69.0258 65.8253 69.0258C65.3819 69.0258 65.0225 69.3815 65.0225 69.8204C65.0225 70.2592 65.3819 70.615 65.8253 70.615Z" fill="#999999" stroke="#263238" stroke-linecap="round" stroke-linejoin="round"/>
<path d="M218.66 60.2156H72.3066V82.65H218.66V60.2156Z" fill="#263238"/>
<path opacity="0.2" d="M216.545 61.9033H74.3634C73.9167 61.9033 73.5547 62.2617 73.5547 62.7037V66.3345C73.5547 66.7766 73.9167 67.1349 74.3634 67.1349H216.545C216.991 67.1349 217.353 66.7766 217.353 66.3345V62.7037C217.353 62.2617 216.991 61.9033 216.545 61.9033Z" fill="white"/>
<path d="M205.557 87.1624H85.4273C82.042 79.5035 80.2484 71.2487 80.1533 62.8894H210.855C210.855 74.1298 205.557 87.1624 205.557 87.1624Z" fill="white"/>
<g opacity="0.7">
<path opacity="0.7" d="M95.1431 85.3411C95.1431 85.3411 97.7742 85.2019 99.2451 84.3261C100.716 83.4503 100.61 85.1149 101.454 85.2251C102.298 85.3353 104.291 84.6451 105.345 84.6451C106.4 84.6451 105.597 85.2831 106.787 85.2251C107.976 85.1671 107.338 85.2831 107.959 85.1671L113.051 84.3261C113.051 84.3261 115.635 83.8331 116.157 84.0825C116.679 84.3319 117.364 85.5615 118.126 85.2425C118.888 84.9235 118.483 84.6625 119.632 84.6625C120.342 84.6658 121.048 84.7673 121.73 84.9641C121.73 84.9641 121.835 84.6683 122.363 84.6625H123.306C123.306 84.6625 125.304 85.1845 125.621 85.1845C125.937 85.1845 128.299 84.6683 128.381 84.6625C128.463 84.6567 130.725 84.0825 130.725 84.0825C131.205 84.579 131.813 84.936 132.483 85.1149C133.339 85.2251 134.241 84.9989 134.886 85.2831C135.53 85.5673 137.652 85.1671 137.652 85.1671C138.158 85.1704 138.663 85.2092 139.163 85.2831C139.82 85.4314 140.504 85.4115 141.15 85.2251C142.338 84.9142 143.585 84.8943 144.783 85.1671C146.688 85.5093 148.44 84.6509 149.248 84.6451C150.057 84.6393 153.292 84.9989 154.405 84.9989C155.519 84.9989 158.466 85.3933 160.517 85.1671C162.568 84.9409 163.91 85.4513 165.287 85.4513C166.664 85.4513 168.135 85.3933 168.452 85.3933C168.768 85.3933 170.292 84.4073 172.472 84.6451C174.652 84.8829 172.712 84.3493 174.054 84.6451C175.396 84.9409 176.456 85.2251 177.025 85.2831C177.481 85.3094 177.938 85.29 178.39 85.2251L180.734 85.0569H192.419" stroke="#263238" stroke-linecap="round" stroke-linejoin="round"/>
<path opacity="0.7" d="M92.7109 80.8635C92.7109 80.8635 99.948 80.8635 101.255 80.7475C102.562 80.6315 103.259 79.9703 103.956 79.9703C104.654 79.9703 108.175 80.6315 108.175 80.6315C108.278 80.4153 108.446 80.2357 108.656 80.1173C108.866 79.999 109.107 79.9476 109.347 79.9703C110.303 79.9703 109.816 80.0573 110.695 80.4053C111.574 80.7533 111.117 80.4053 111.58 80.7475C112.27 81.0543 113 81.2651 113.748 81.3739C113.748 81.3739 117.012 81.5247 117.135 80.7475C117.258 79.9703 118.893 81.3739 118.893 81.3739C118.893 81.3739 123.324 80.7475 125.035 80.7475C126.746 80.7475 131.035 80.4053 131.035 80.4053C131.035 80.4053 134.551 80.8635 134.715 80.8635C134.879 80.8635 135.46 81.7741 136.087 81.3739C136.714 80.9737 137.317 80.5155 138.061 80.6315C138.753 80.8012 139.421 81.0504 140.054 81.3739L141.689 80.5155L143.564 80.6315C143.564 80.6315 145.474 81.8901 146.84 81.3739C147.879 80.9627 148.895 80.4941 149.881 79.9703L151.563 81.3739H152.665L155.929 80.7475C156.18 81.0531 156.518 81.2765 156.9 81.3883C157.282 81.5 157.689 81.495 158.068 81.3739C159.45 80.9795 172.665 81.3739 176.028 81.3739C179.392 81.3739 180.13 80.5155 180.13 80.5155L182.721 81.3739H195.613" stroke="#263238" stroke-linecap="round" stroke-linejoin="round"/>
</g>
<path opacity="0.2" d="M206.782 83.8099C206.073 85.8979 205.557 87.1623 205.557 87.1623H85.4274C85.4274 87.1623 84.8414 85.9443 84.0386 83.8099H206.782Z" fill="black"/>
<path opacity="0.2" d="M209.284 75.0287C208.88 76.7687 208.434 78.4681 207.995 79.9703H82.7316C82.2979 78.4971 81.8526 76.8325 81.4658 75.0287H209.284Z" fill="black"/>
<path d="M205.557 87.1624H85.4273C82.042 79.5035 80.2484 71.2487 80.1533 62.8894H210.855C210.855 74.1298 205.557 87.1624 205.557 87.1624Z" stroke="#263238" stroke-linecap="round" stroke-linejoin="round"/>
<path d="M72.2772 59.0613H68.6968V83.8157H72.2772V59.0613Z" fill="#757575"/>
<path opacity="0.2" d="M72.2069 76.4729H68.7202V83.8157H72.2069V76.4729Z" fill="black"/>
<path d="M72.2772 59.0613H68.6968V83.8157H72.2772V59.0613Z" stroke="#263238" stroke-linecap="round" stroke-linejoin="round"/>
<path d="M222.264 59.0613H218.684V83.8157H222.264V59.0613Z" fill="#757575"/>
<path opacity="0.2" d="M222.264 76.4729H218.654V83.8157H222.264V76.4729Z" fill="black"/>
<path d="M222.264 59.0613H218.684V83.8157H222.264V59.0613Z" stroke="#263238" stroke-linecap="round" stroke-linejoin="round"/>
<path d="M218.713 58.0232V76.0786H72.2482V58.0232H70.8418V77.2908H220.119V58.0232H218.713Z" fill="#999999" stroke="#263238" stroke-linecap="round" stroke-linejoin="round"/>
<path d="M227.368 88.4384V128.928C227.368 129.611 227.094 130.266 226.606 130.749C226.118 131.232 225.456 131.503 224.766 131.503H66.177C65.487 131.503 64.8252 131.232 64.3373 130.749C63.8493 130.266 63.5752 129.611 63.5752 128.928V88.4384C63.5752 87.7554 63.8493 87.1004 64.3373 86.6174C64.8252 86.1345 65.487 85.8632 66.177 85.8632H139.251V88.4384C139.251 88.4384 126.775 99.151 105.263 103.101C108.346 116.911 125.187 127.461 145.51 127.461C165.832 127.461 182.674 116.899 185.762 103.101C164.221 99.151 151.745 88.4384 151.745 88.4384V85.84H224.784C225.126 85.8422 225.464 85.9113 225.78 86.0432C226.095 86.1751 226.381 86.3672 226.621 86.6086C226.861 86.8499 227.05 87.1358 227.178 87.4498C227.307 87.7637 227.371 88.0997 227.368 88.4384Z" fill="white" stroke="#263238" stroke-linecap="round" stroke-linejoin="round"/>
<path d="M227.368 88.4384V128.928C227.368 129.267 227.301 129.602 227.169 129.915C227.038 130.228 226.846 130.512 226.604 130.751C226.362 130.99 226.074 131.18 225.758 131.309C225.441 131.438 225.103 131.504 224.76 131.503H66.177C65.8349 131.504 65.4959 131.438 65.1796 131.309C64.8632 131.18 64.5757 130.99 64.3335 130.751C64.0912 130.512 63.8991 130.228 63.7679 129.915C63.6368 129.602 63.5693 129.267 63.5693 128.928V88.4384C63.5709 87.7543 63.8461 87.0987 64.3348 86.615C64.8235 86.1313 65.4859 85.8589 66.177 85.8574H139.251V88.4384C139.251 88.4384 126.769 99.1452 105.263 103.101C108.346 116.911 125.187 127.461 145.516 127.461C165.844 127.461 182.674 116.899 185.762 103.101C164.221 99.1452 151.745 88.4384 151.745 88.4384V85.84H224.784C225.474 85.8461 226.134 86.1231 226.619 86.6102C227.103 87.0974 227.373 87.7548 227.368 88.4384V88.4384Z" fill="white"/>
<path opacity="0.2" d="M223.852 89.059V126.44C223.852 126.688 223.802 126.935 223.706 127.164C223.609 127.393 223.468 127.602 223.29 127.777C223.112 127.952 222.9 128.091 222.668 128.185C222.436 128.279 222.187 128.326 221.936 128.325H67.7356C67.4852 128.326 67.2372 128.277 67.0058 128.183C66.7744 128.089 66.5642 127.95 66.3872 127.775C66.2102 127.599 66.0699 127.391 65.9745 127.162C65.879 126.933 65.8303 126.688 65.8311 126.44V89.059C65.8303 88.8107 65.8789 88.5646 65.9742 88.3349C66.0695 88.1052 66.2096 87.8964 66.3865 87.7203C66.5633 87.5441 66.7735 87.4042 67.0049 87.3085C67.2364 87.2128 67.4847 87.1631 67.7356 87.1624H139.228V88.4384C139.228 88.4384 126.746 99.1451 105.24 103.101C108.322 116.911 125.164 127.461 145.492 127.461C165.82 127.461 182.65 116.899 185.738 103.101C164.197 99.1451 151.721 88.4384 151.721 88.4384V87.1624H221.953C222.458 87.1669 222.941 87.3688 223.297 87.724C223.652 88.0792 223.852 88.5589 223.852 89.059V89.059Z" fill="white"/>
<path d="M227.368 88.4384V128.928C227.368 129.267 227.301 129.602 227.169 129.915C227.038 130.228 226.846 130.512 226.604 130.751C226.362 130.99 226.074 131.18 225.758 131.309C225.441 131.438 225.103 131.504 224.76 131.503H66.177C65.8349 131.504 65.4959 131.438 65.1796 131.309C64.8632 131.18 64.5757 130.99 64.3335 130.751C64.0912 130.512 63.8991 130.228 63.7679 129.915C63.6368 129.602 63.5693 129.267 63.5693 128.928V88.4384C63.5709 87.7543 63.8461 87.0987 64.3348 86.615C64.8235 86.1313 65.4859 85.8589 66.177 85.8574H139.251V88.4384C139.251 88.4384 126.769 99.1452 105.263 103.101C108.346 116.911 125.187 127.461 145.516 127.461C165.844 127.461 182.674 116.899 185.762 103.101C164.221 99.1452 151.745 88.4384 151.745 88.4384V85.84H224.784C225.474 85.8461 226.134 86.1231 226.619 86.6102C227.103 87.0974 227.373 87.7548 227.368 88.4384V88.4384Z" stroke="#263238" stroke-linecap="round" stroke-linejoin="round"/>
<path opacity="0.2" d="M174.98 143.504L182.768 165.004C182.768 165.004 186.137 141.34 188.147 141.34C190.157 141.34 194.488 154.28 194.488 154.28C194.488 154.28 197.16 147.529 199.691 147.285C202.223 147.042 204.514 163.862 204.514 163.862L204.907 201.196L201.713 257.659C201.713 257.659 181.338 235.445 175.396 229.721C169.454 223.996 163.775 211.398 162.134 208.841C160.494 206.283 160.078 192.891 160.078 192.891C162.155 190.26 163.241 186.995 163.148 183.657C163.148 183.657 167.93 175.734 167.637 169.888C167.344 164.041 166.606 141.323 174.98 143.504Z" fill="black" fill-opacity="0.7"/>
<path d="M236.281 247.66L205.434 263.72C205.434 263.558 201.379 257.056 196.48 249.701C194.265 246.372 191.874 242.875 189.606 239.708C185.891 234.529 181.168 230.057 180.764 229.083C179.592 226.183 170.555 215.325 168.534 211.103C166.512 206.88 166.049 193.743 165.158 190.652C164.268 187.56 166.823 184.608 168.874 183.17C170.925 181.731 173.075 177.95 173.075 177.95C173.075 177.95 170.807 169.203 170.784 164.755C170.761 160.306 169.231 144.779 171.059 143.329C172.888 141.879 174.523 142.488 174.98 143.486C176.48 146.775 177.828 155.046 178.982 158.856C180.137 162.667 182.305 173.722 183.371 174.516C184.438 175.311 186.336 172.329 186.336 172.329C186.336 172.329 186.518 163.049 186.922 159.204L186.336 147.024C186.336 147.024 185.241 139.704 187.79 139.008C191.306 138.051 192.589 140.238 192.988 141.16C193.386 142.082 195.027 147.395 195.027 147.395L195.121 147.761C195.121 147.795 195.121 147.83 195.121 147.871V147.935C195.148 148.035 195.177 148.145 195.208 148.265C195.273 148.509 195.349 148.799 195.431 149.129C196.211 152.151 197.711 158.201 197.646 159.691C197.558 161.704 196.849 172.852 197.851 175.166L199.41 159.767C199.41 159.767 196.896 147.9 197.629 146.189C198.361 144.478 201.813 146.369 202.223 147.041C202.633 147.714 205.985 151.786 206.583 153.34L207.169 154.895C207.169 154.895 207.995 151.217 209.935 152.174C211.874 153.131 212.115 157.806 212.249 159.848C212.384 161.889 213.791 175.021 214.007 175.044C214.224 175.067 216.463 181.888 216.158 186.394C215.519 196.04 217.207 203.214 217.266 206.915C217.324 210.615 214.505 219.188 214.505 219.188C214.605 219.356 216.445 222.453 216.949 225.173C217.318 227.169 223.887 234.378 229.255 240.114C232.988 244.07 236.117 247.306 236.281 247.66Z" fill="white"/>
<path opacity="0.4" d="M196.486 249.713C194.271 246.384 191.88 242.886 189.612 239.72C185.897 234.54 181.174 230.068 180.769 229.094C179.597 226.194 170.561 215.336 168.54 211.114C166.518 206.892 166.055 193.755 165.164 190.663C164.274 187.572 166.829 184.62 168.88 183.181C170.931 181.743 173.081 177.961 173.081 177.961C173.081 177.961 170.813 169.215 170.79 164.766C170.766 160.318 169.237 144.791 171.065 143.341C172.894 141.891 174.529 142.5 174.986 143.498C176.486 146.786 177.834 155.057 178.988 158.868C180.142 162.678 182.311 173.733 183.377 174.528C184.444 175.322 186.342 172.341 186.342 172.341C186.342 172.341 186.524 163.061 186.928 159.216L186.342 147.036C186.342 147.036 185.246 139.716 187.796 139.02C191.312 138.063 192.595 140.25 192.993 141.172C193.392 142.094 195.033 147.407 195.033 147.407L195.126 147.772C195.126 147.807 195.126 147.842 195.126 147.882V147.946C195.15 148.047 195.179 148.157 195.214 148.277C195.279 148.52 195.355 148.81 195.437 149.141C194.529 147.72 193.281 146.508 191.61 146.189C186.922 145.284 187.936 150.446 188.382 153.543C188.634 155.599 188.585 157.679 188.235 159.72L189.407 159.053C188.563 160.544 187.356 172.933 187.356 175.688C187.356 178.443 185.153 179.359 183.178 178.553C181.203 177.747 180.5 165.103 179 162.835C177.5 160.567 173.327 164.9 173.14 168.861C172.952 172.822 176.685 184.637 175.8 187.421C174.915 190.205 174.927 200.761 174.927 200.761L173.849 198.041C173.919 198.412 173.849 199.659 171.593 203.33C170.745 204.659 170.197 206.153 169.986 207.711C169.775 209.268 169.905 210.852 170.368 212.355C171.745 215.365 178.73 223.3 179.902 224.118C179.902 224.118 180.752 220.672 183.418 221.589C182.51 223.017 181.849 224.586 181.461 226.229C180.91 228.758 186.471 230.376 188.212 232.783C189.278 234.25 189.993 238.722 196.486 249.713Z" fill="white"/>
<path opacity="0.4" d="M229.29 240.12C223.805 234.651 214.154 229.442 214.74 228.079C215.525 226.246 214.529 222.343 212.841 219.176C211.153 216.009 213.427 210.871 213.427 210.871L214.47 213.858C215.305 210.412 215.402 206.833 214.757 203.348C213.691 197.426 212.859 199.508 212.859 199.508C212.859 199.508 213.075 194.172 214.031 191.261C214.986 188.349 215.789 181.279 214.47 177.097C213.152 172.915 210.368 173.704 209.624 175.143C208.88 176.581 209.677 182.19 210.292 184.028C210.907 185.867 208.288 188.958 208.235 186.661C208.182 184.365 207.192 177.961 207.192 177.961L209.178 165.103L207.192 154.889C207.192 154.889 208.018 151.212 209.958 152.169C211.897 153.126 212.138 157.801 212.273 159.842C212.407 161.884 213.814 175.015 214.031 175.038C214.247 175.061 216.486 181.882 216.181 186.389C215.542 196.034 217.23 203.209 217.289 206.909C217.347 210.61 214.529 219.182 214.529 219.182C214.628 219.35 216.468 222.447 216.972 225.168C217.341 227.163 223.91 234.372 229.278 240.108L229.29 240.12Z" fill="white"/>
<path opacity="0.4" d="M206.582 153.34C206.694 153.63 206.787 153.868 206.858 154.06C204.994 149.773 201.818 151.102 201.256 152.32C200.693 153.538 202.586 161.095 203.014 162.267C203.441 163.438 201.314 172.794 201.004 175.891C200.693 178.988 199.867 179.62 199.867 179.62C197.763 179.777 197.523 174.029 197.523 173.24C197.564 173.9 197.694 174.552 197.91 175.177L199.468 159.778C199.468 159.778 196.896 147.9 197.628 146.189C198.361 144.478 201.812 146.369 202.223 147.042C202.633 147.714 205.985 151.786 206.582 153.34Z" fill="white"/>
<path d="M236.281 247.66C235.883 246.767 217.582 228.52 216.943 225.168C216.428 222.372 214.494 219.176 214.494 219.176C214.494 219.176 217.312 210.621 217.254 206.903C217.195 203.186 215.496 196.028 216.146 186.383C216.451 181.876 214.218 175.056 213.996 175.032C213.773 175.009 212.367 161.878 212.238 159.836C212.109 157.795 211.868 153.12 209.923 152.163C207.977 151.206 207.157 154.883 207.157 154.883L206.571 153.329C205.985 151.774 202.621 147.703 202.211 147.03C201.801 146.357 198.355 144.461 197.617 146.177C196.879 147.894 199.451 159.744 199.451 159.744L197.904 175.16C196.902 172.84 197.611 161.698 197.699 159.686C197.787 157.673 195.033 147.39 195.033 147.39C195.033 147.39 193.38 142.1 192.993 141.149C192.607 140.198 191.312 138.04 187.796 138.997C185.246 139.693 186.342 147.013 186.342 147.013L186.928 159.193C186.536 163.055 186.342 172.318 186.342 172.318C186.342 172.318 184.444 175.293 183.377 174.505C182.311 173.716 180.142 162.667 178.988 158.845C177.834 155.022 176.486 146.763 174.986 143.475C174.529 142.477 172.894 141.868 171.065 143.318C169.237 144.768 170.761 160.289 170.79 164.743C170.819 169.198 173.081 177.938 173.081 177.938C173.081 177.938 170.931 181.697 168.88 183.158C166.829 184.62 164.274 187.543 165.164 190.64C166.055 193.737 166.518 206.88 168.54 211.091C170.561 215.302 179.574 226.171 180.769 229.071C181.174 230.045 185.897 234.517 189.612 239.697C196.908 249.864 205.434 263.477 205.434 263.709" stroke="#263238" stroke-linecap="round" stroke-linejoin="round"/>
<path d="M173.075 177.967C173.075 177.967 174.529 185.095 174.476 186.29C174.476 186.29 173.204 191.794 173.192 195.361C172.303 196.705 171.504 198.106 170.802 199.555C170.309 200.842 169.43 204.009 169.794 205.772" stroke="#263238" stroke-linecap="round" stroke-linejoin="round"/>
<path d="M170.42 188.5C170.42 188.5 173.983 188.529 173.755 190.014" stroke="#263238" stroke-linecap="round" stroke-linejoin="round"/>
<path d="M173.192 195.361C173.192 195.361 170.907 194.381 170.104 195.698" stroke="#263238" stroke-linecap="round" stroke-linejoin="round"/>
<path d="M186.348 172.341C186.348 172.341 186.184 177.805 184.73 177.37" stroke="#263238" stroke-linecap="round" stroke-linejoin="round"/>
<path d="M197.904 175.16C197.904 175.16 197.482 178.147 198.619 179.069" stroke="#263238" stroke-linecap="round" stroke-linejoin="round"/>
<path d="M207.174 154.895C207.174 154.895 208.757 162.435 209.12 164.221C209.483 166.008 207.321 175.125 207.362 177.497C207.403 179.87 208.428 183.263 208.288 184.858" stroke="#263238" stroke-linecap="round" stroke-linejoin="round"/>
<path d="M213.492 212.158C213.492 212.158 212.982 217.082 214.511 219.188" stroke="#263238" stroke-linecap="round" stroke-linejoin="round"/>
<path d="M182.768 221.902C182.768 221.902 179.357 224.976 180.605 228.758" stroke="#263238" stroke-linecap="round" stroke-linejoin="round"/>
<path d="M205.182 183.576C205.235 185.745 203.952 188.274 203.817 191.272" stroke="#263238" stroke-linecap="round" stroke-linejoin="round"/>
<path d="M194.318 181.639C195.044 183.413 193.462 187.276 193.222 188.726C193.126 189.861 193.251 191.003 193.591 192.09" stroke="#263238" stroke-linecap="round" stroke-linejoin="round"/>
<path d="M214.739 187.752C214.446 189.637 213.099 190.982 212.841 196.782" stroke="#263238" stroke-linecap="round" stroke-linejoin="round"/>
<path d="M181.467 181.088C182.451 182.149 181.789 187.218 182.053 188.048" stroke="#263238" stroke-linecap="round" stroke-linejoin="round"/>
<path d="M199.826 151.885C199.826 151.885 203.178 149.454 206.061 152.32" stroke="#263238" stroke-linecap="round" stroke-linejoin="round"/>
<path d="M188.282 146.299C188.282 146.299 188.868 145.331 191.698 145.568C194.528 145.806 195.032 147.384 195.032 147.384" stroke="#263238" stroke-linecap="round" stroke-linejoin="round"/>
<path d="M180.013 162.858C180.013 162.858 179.064 161.472 176.562 161.93C174.06 162.388 172.946 165.892 172.946 165.892" fill="white"/>
<path d="M180.013 162.858C180.013 162.858 179.064 161.472 176.562 161.93C174.06 162.388 172.946 165.892 172.946 165.892" stroke="#263238" stroke-linecap="round" stroke-linejoin="round"/>
<path d="M214.013 175.044C214.013 175.044 211.927 172.051 209.419 173.333" stroke="#263238" stroke-linecap="round" stroke-linejoin="round"/>
<path opacity="0.2" d="M125.141 153.12C128.657 155.817 125.691 172.37 125.691 172.37L126.002 177.758L132.032 175.16L134.78 186.673C134.78 186.673 134.71 190.89 136.943 192.473C136.943 192.473 137.493 201.933 136.943 208.846C136.392 215.76 125.223 223.886 121.373 231.142C117.523 238.397 92.4124 259.724 92.4124 259.724L71.1523 249.713L86.5231 188.268L100.294 170.746L108.457 150.591C108.457 150.591 109.858 163.757 109.043 172.631L125.141 153.12Z" fill="black" fill-opacity="0.7"/>
<path d="M131.059 189.892C130.526 192.432 131.809 206.358 131.586 208.237C131.364 210.117 120.171 222.737 119.608 223.694C119.046 224.651 111.563 228.914 109.822 230.95C101.689 240.34 97.2467 248.988 93.678 257.659C92.9924 259.33 92.336 261.006 91.6914 262.688L59.4146 244.128C62.1277 240.799 64.6886 237.841 67.0326 235.149C71.7206 229.692 75.4534 225.324 77.2817 221.2C77.8428 220.147 78.4854 219.139 79.2038 218.184C79.9304 217.164 80.5809 216.323 80.5809 216.323C80.5809 216.323 78.2369 209.786 78.7819 207.733C79.3268 205.68 78.108 188.802 78.108 188.802C78.108 188.802 76.5199 177.312 74.9553 174.412C74.571 173.655 74.3971 172.81 74.4513 171.964C74.5275 169.314 76.0804 165.973 76.8422 162.104C77.8618 156.884 77.3696 154.303 80.5692 156.107C83.7687 157.911 82.2744 168.867 82.2744 168.867L87.1089 179.469C88.3805 176.906 87.1089 169.424 87.0445 167.655C87.0445 167.365 87.0445 166.883 86.9976 166.257C86.898 163.206 86.6929 156.855 86.9566 154.35C86.9566 154.21 86.9566 154.083 87.0034 153.967C87.3961 151.38 88.7966 143.15 89.6873 142.233C91.0117 140.876 93.1154 139.734 95.0961 142.813C96.2036 144.553 95.729 158.352 95.729 158.352C95.729 158.352 100.323 152.865 101.718 151.525C103.113 150.185 107.344 147.738 108.474 150.574C109.605 153.41 105.433 162.174 105.433 162.174C106.306 164.204 106.412 169.824 106.412 169.824C106.412 169.824 108.387 176.848 109.6 176.784H109.652C110.004 176.709 110.391 175.433 110.795 173.64C111.791 169.25 112.875 161.739 113.725 161.083L114.311 160.619C114.338 160.586 114.369 160.557 114.405 160.532L114.622 160.341C116.696 158.514 121.068 154.454 121.068 154.454C121.068 154.454 121.378 152.511 125.205 153.108C129.031 153.706 123.505 164.882 123.505 164.882C122.738 168.438 121.56 177.584 121.56 177.584C121.202 181.389 121.413 191.615 121.413 191.615C121.413 191.615 123.224 185.664 123.107 183.495C122.99 181.325 126.705 176.013 127.795 174.644C128.885 173.275 133.749 173.756 132.395 176.384C131.041 179.011 131.592 187.34 131.059 189.892Z" fill="white"/>
<path opacity="0.4" d="M77.2643 221.224C77.8254 220.171 78.468 219.162 79.1864 218.208C79.1864 218.208 77.2819 223.428 77.0943 226.206C76.9713 228.039 72.0958 231.211 67.0151 235.173C71.7324 229.715 75.436 225.347 77.2643 221.224Z" fill="white"/>
<path opacity="0.4" d="M79.186 218.208C79.9126 217.187 80.5631 216.346 80.5631 216.346C80.5631 216.346 78.2191 209.809 78.7641 207.756C79.3091 205.703 78.0902 188.825 78.0902 188.825C78.0902 188.825 76.5021 177.335 74.9375 174.435L78.5824 180.74C78.5824 180.74 78.225 185.722 79.2622 188.454C80.2994 191.185 81.6062 199.52 81.6062 199.52C81.6062 199.52 80.0709 206.526 80.5924 209.049C81.1139 211.572 83.4638 210.656 83.4638 210.656C83.4638 210.656 84.6182 215.273 79.186 218.208Z" fill="white"/>
<path opacity="0.4" d="M87.6889 170.746C90.2029 185.316 85.8723 181.285 84.3077 178.141C82.7431 174.998 79.0689 169.047 76.3029 170.317C75.5262 170.678 74.8755 171.259 74.4336 171.987C74.5098 169.337 76.0627 165.996 76.8245 162.127C77.8441 156.907 77.3519 154.326 80.5514 156.13C83.751 157.934 82.2567 168.89 82.2567 168.89L87.0912 179.493C88.3628 176.929 87.0912 169.447 87.0267 167.678C87.0267 167.388 87.0267 166.907 86.9799 166.28C87.1732 167.62 87.4076 169.111 87.6889 170.746Z" fill="white"/>
<path opacity="0.4" d="M93.842 156.351C93.842 156.351 91.1289 152.836 88.7731 153.016C88.3686 153.037 87.9794 153.176 87.6534 153.414C87.3275 153.652 87.0791 153.979 86.939 154.355C86.939 154.216 86.939 154.089 86.9858 153.973C87.3785 151.386 88.779 143.156 89.6697 142.239C90.9941 140.882 93.0978 139.739 95.0785 142.819C96.186 144.559 95.7114 158.357 95.7114 158.357C95.7114 158.357 100.306 152.871 101.7 151.531C103.095 150.191 107.326 147.743 108.457 150.58C109.588 153.416 105.416 162.18 105.416 162.18C106.289 164.21 106.394 169.83 106.394 169.83C106.394 169.83 108.369 176.854 109.582 176.79C106.91 181.766 105.128 170.764 105.128 170.764C105.527 168.49 104.109 163.56 104.249 162.261C104.39 160.962 101.788 156.368 97.4049 157.621C93.0216 158.874 96.186 176.018 96.186 176.018C95.3199 177.384 94.816 178.944 94.721 180.554C93.3674 178.901 94.721 174.174 94.721 174.174C93.5197 169.65 93.842 156.351 93.842 156.351Z" fill="white"/>
<path opacity="0.4" d="M114.27 160.602C112.401 162.545 112.658 167.458 110.754 173.623C111.75 169.232 112.834 161.721 113.684 161.066L114.27 160.602Z" fill="white"/>
<path opacity="0.4" d="M131.059 189.892C130.525 192.432 131.809 206.358 131.586 208.237C131.363 210.117 120.171 222.737 119.608 223.694C119.046 224.651 111.562 228.914 109.822 230.95C101.688 240.34 97.2465 248.988 93.6777 257.659C95.022 253.164 96.6444 248.756 98.5357 244.458C102.386 235.892 103.956 234.366 106.265 231.919C108.574 229.471 108.322 224.269 108.322 224.269C110.026 223.862 111.773 223.658 113.526 223.66C116.456 223.66 125.128 211.422 128.111 209.276C131.094 207.13 131.627 207.13 128.111 202.397C124.595 197.664 125.591 203.157 124.536 202.977C123.482 202.797 122.907 205.082 122.907 205.082C122.538 200.257 119.391 194.642 118.729 193.239C118.067 191.835 120.335 183.605 119.866 181.314C119.397 179.023 121.882 165.074 121.882 165.074C121.882 165.074 121.571 159.72 116.672 159.703C115.921 159.662 115.178 159.884 114.574 160.329C116.649 158.502 121.02 154.442 121.02 154.442C121.02 154.442 121.331 152.499 125.158 153.097C128.984 153.694 123.458 164.871 123.458 164.871C122.691 168.426 121.513 177.573 121.513 177.573C121.155 181.378 121.366 191.603 121.366 191.603C121.366 191.603 123.177 185.652 123.06 183.483C122.943 181.314 126.658 176.001 127.748 174.632C128.838 173.263 133.702 173.745 132.348 176.372C130.994 179 131.592 187.34 131.059 189.892Z" fill="white"/>
<path d="M91.6856 262.74C95.6645 252.341 100.112 242.191 109.822 230.979C111.58 228.972 119.04 224.709 119.608 223.723C120.177 222.737 131.369 210.14 131.586 208.266C131.803 206.393 130.526 192.461 131.059 189.921C131.592 187.381 130.971 179.005 132.319 176.395C133.667 173.785 128.803 173.31 127.719 174.655C126.635 176.001 122.931 181.36 123.031 183.506C123.13 185.652 121.337 191.626 121.337 191.626C121.337 191.626 121.126 181.401 121.484 177.596C121.484 177.596 122.656 168.449 123.429 164.894C123.429 164.894 128.949 153.712 125.129 153.12C121.308 152.528 120.991 154.466 120.991 154.466C120.991 154.466 114.891 160.138 113.684 161.066C112.477 161.994 110.83 176.494 109.617 176.767C108.404 177.039 106.377 169.807 106.377 169.807C106.377 169.807 106.271 164.186 105.398 162.156C105.398 162.156 109.564 153.416 108.439 150.556C107.314 147.697 103.083 150.174 101.683 151.508C100.282 152.842 95.6938 158.334 95.6938 158.334C95.6938 158.334 96.1685 144.524 95.0609 142.796C93.0802 139.705 90.9589 140.847 89.6521 142.216C88.7614 143.132 87.3609 151.363 86.9683 153.949C86.5756 156.536 86.9683 165.863 87.0093 167.637C87.0503 169.412 88.3454 176.888 87.0737 179.452L82.2392 168.85C82.2392 168.85 83.7394 157.882 80.534 156.09C77.3286 154.297 77.8267 156.884 76.807 162.087C75.7874 167.289 73.3613 171.518 74.9201 174.423C76.4789 177.329 78.0728 188.813 78.0728 188.813C78.0728 188.813 79.2799 205.691 78.7467 207.744C78.2134 209.798 80.5633 216.34 80.5633 216.34C80.5633 216.34 77.856 219.872 77.2641 221.218C74.5334 227.36 67.6244 234.076 59.4087 244.18" stroke="#263238" stroke-linecap="round" stroke-linejoin="round"/>
<path d="M95.7113 158.369C95.0308 159.365 94.6862 160.549 94.7269 161.75C94.7269 163.954 96.186 176.018 96.186 176.018C96.186 176.018 95.1253 177.26 95.0726 178.338" stroke="#263238" stroke-linecap="round" stroke-linejoin="round"/>
<path d="M121.349 191.597C121.509 193.635 122.039 195.627 122.914 197.478C124.285 200.158 123.84 201.637 123.371 203.22C123.057 204.609 122.89 206.026 122.873 207.449" stroke="#263238" stroke-linecap="round" stroke-linejoin="round"/>
<path d="M87.607 177.091C87.607 177.091 88.6267 180.293 86.7339 181.813" stroke="#263238" stroke-linecap="round" stroke-linejoin="round"/>
<path d="M109.635 176.767C109.635 176.767 109.834 178.025 108.035 178.141" stroke="#263238" stroke-linecap="round" stroke-linejoin="round"/>
<path d="M121.718 162.267C121.718 162.267 117.206 157.395 113.702 161.066" stroke="#263238" stroke-linecap="round" stroke-linejoin="round"/>
<path d="M103.435 159.529C103.435 159.529 101.355 156.925 99.5498 157.081C97.7449 157.238 95.3072 158.328 95.0317 159.761" stroke="#263238" stroke-linecap="round" stroke-linejoin="round"/>
<path d="M123.757 201.654C124.485 202.685 125.015 203.839 125.322 205.059" stroke="#263238" stroke-linecap="round" stroke-linejoin="round"/>
<path d="M112.037 181.853C110.637 184.434 111.305 188.813 110.789 190.014" stroke="#263238" stroke-linecap="round" stroke-linejoin="round"/>
<path d="M97.2 177.567C97.5282 179.052 96.491 181.47 96.3327 183.251C96.1745 185.032 97.6454 187.781 97.3758 190.281" stroke="#263238" stroke-linecap="round" stroke-linejoin="round"/>
<path d="M87.6893 183.645C87.6893 183.645 86.4645 186.441 86.5173 188.285C86.57 190.13 87.2322 194.172 87.2322 194.172" stroke="#263238" stroke-linecap="round" stroke-linejoin="round"/>
<path d="M78.6821 183.512C78.6821 183.512 78.2367 186.412 79.2681 188.454C80.2994 190.495 81.3015 194.834 81.3015 194.834" stroke="#263238" stroke-linecap="round" stroke-linejoin="round"/>
<path d="M80.5635 216.34C81.1036 216.192 81.5864 215.887 81.949 215.464C82.3116 215.041 82.5373 214.519 82.5969 213.968" stroke="#263238" stroke-linecap="round" stroke-linejoin="round"/>
<path d="M110.022 225.179C110.022 225.179 111.141 229.28 108.996 231.919" stroke="#263238" stroke-linecap="round" stroke-linejoin="round"/>
<path d="M74.4629 171.5C74.4629 171.5 77.6156 168.455 80.0006 171.025" stroke="#263238" stroke-linecap="round" stroke-linejoin="round"/>
<path d="M86.9858 153.973C86.9858 153.973 89.3298 151.542 92.0723 154.141" stroke="#263238" stroke-linecap="round" stroke-linejoin="round"/>
</svg>
